# Vertices - count=44.
v 0.01641600951552391 0.010064840316772461 -0.02109605073928833
v 0.018089890480041504 0.013338199816644192 -0.013904750347137451
v 0.0008935100049711764 0.004372715018689632 -0.008288382552564144
v -0.0023407340049743652 0.005729137919843197 0.0014572730287909508
v -0.010898529551923275 -0.0034466979559510946 0.00015803299902472645
v -0.017416050657629967 -0.0014116159873083234 0.010058400221168995
v -0.025461729615926743 -0.00812000036239624 0.012393469922244549
v -0.02359735034406185 -0.010971300303936005 0.014478679746389389
v -0.015113470144569874 -0.007691322825849056 0.004040240775793791
v -0.00604355288669467 -0.005486785899847746 -0.0021145930513739586
v -0.013288550078868866 -0.01179616991430521 0.009707330726087093
v 0.0038715600967407227 -0.0002375009935349226 -0.009960769675672054
v 0.016923479735851288 0.0020369288977235556 -0.015272139571607113
v 0.021649060770869255 0.010278340429067612 -0.021481629461050034
v 0.017355019226670265 0.012633140198886395 -0.019284840673208237
v -0.0021626350935548544 0.005167483817785978 -0.0033767810091376305
v -0.009631811641156673 0.0014142390573397279 0.006378829013556242
v -0.010269640013575554 -0.001101969974115491 0.001278041978366673
v -0.022741369903087616 -0.0048430562019348145 0.01396964956074953
v -0.02332036942243576 -0.00698393490165472 0.009091079235076904
v -0.024345990270376205 -0.008995771408081055 0.015418879687786102
v -0.02434116043150425 -0.010781699791550636 0.010463410057127476
v -0.021427150815725327 -0.011767200194299221 0.014962069690227509
v -0.01199220959097147 -0.006758152972906828 0.017590880393981934
v 0.017020339146256447 0.006729722023010254 -0.02103918045759201
v -0.023061690852046013 -0.005251049064099789 0.010066679678857327
v -0.020285479724407196 -0.012135379947721958 0.010717569850385189
v 0.010183930397033691 -0.00038680899888277054 -0.01164488960057497
v 0.016848379746079445 0.003924368880689144 -0.01863371953368187
v 0.01879638060927391 0.005602777004241943 -0.00688016414642334
v 0.0017977349925786257 -0.003680706024169922 0.009284316562116146
v -0.0013406870421022177 -0.00021445700258482248 -0.007306396029889584
v 0.02168028987944126 0.009337066672742367 -0.021563349291682243
v 0.017299769446253777 0.013467660173773766 -0.01611291989684105
v -0.0242917500436306 -0.007900713942945004 0.014803700149059296
v -0.024717090651392937 -0.01056628953665495 0.012028690427541733
v 0.01761459931731224 0.0019309519557282329 -0.010502089746296406
v 0.01945536956191063 0.010904899798333645 -0.012748709879815578
v 0.017444780096411705 0.009920597076416016 -0.007646799087524414
v 0.005938529036939144 0.0067226882092654705 0.0017251960234716535
v 0.00017487999866716564 -0.007172644138336182 0.0041765570640563965
v -0.005013644229620695 0.0020513529889285564 0.011677560396492481
v -0.012376179918646812 -0.01126462034881115 0.014498289674520493
v -0.018636219203472137 -0.004135906230658293 0.01605045050382614
# Texture coordinates - count=0.
# Normals - count=44.
vn 0.680898904800415 0.4252212941646576 -0.5962916016578674
vn -0.04773174971342087 0.9892867803573608 -0.13796189427375793
vn 0.34854739904403687 0.9059466123580933 0.24036520719528198
vn -0.1579512059688568 0.8608679175376892 -0.48369190096855164
vn -0.6128968000411987 0.7213892936706543 -0.322420597076416
vn -0.36143070459365845 0.9269710779190063 0.10046140104532242
vn -0.6708824038505554 0.3974483907222748 -0.626060426235199
vn -0.6380972266197205 0.6036362051963806 -0.4779700040817261
vn -0.4522385895252228 0.8902469873428345 -0.05422805994749069
vn -0.7022472023963928 0.6300333738327026 -0.3315221071243286
vn -0.44119560718536377 0.8970695734024048 -0.024751240387558937
vn -0.6055616140365601 0.6965435147285461 0.38486671447753906
vn -0.9261016249656677 0.33175790309906006 -0.17964580655097961
vn -0.616568922996521 0.4789828956127167 0.6248347163200378
vn -0.3954834043979645 -0.8177117705345154 0.4182589054107666
vn -0.708437979221344 -0.7018927931785583 -0.0739058181643486
vn -0.6692885756492615 -0.5836601257324219 -0.4597756862640381
vn -0.4088318943977356 0.30922889709472656 -0.8586233258247375
vn 0.7308552265167236 -0.19993799924850464 -0.6525914072990417
vn -0.1502360999584198 -0.39549121260643005 -0.9060993194580078
vn -0.13675649464130402 -0.9542362093925476 -0.26595339179039
vn 0.09695380181074142 -0.9714881777763367 -0.21635779738426208
vn -0.16770480573177338 -0.8126592040061951 0.5580862164497375
vn -0.3608335852622986 -0.5545606017112732 -0.7498412132263184
vn -0.24365389347076416 -0.6870316863059998 -0.6845583915710449
vn -0.007039964199066162 -0.8669390082359314 -0.49836480617523193
vn -0.3073647916316986 -0.5859655141830444 -0.7497808933258057
vn 0.1444225013256073 -0.7537304162979126 -0.6411184072494507
vn 0.4527873992919922 -0.8388082981109619 -0.3022983968257904
vn 0.8611518144607544 -0.0876966118812561 0.5007264018058777
vn 0.7083219289779663 -0.7009341716766357 0.0834956094622612
vn 0.5413259267807007 0.6064215898513794 0.5824251770973206
vn 0.8554459810256958 0.4191097915172577 0.3042353093624115
vn 0.2410050928592682 0.7412014007568359 0.6265279054641724
vn 0.661602795124054 -0.2750155031681061 0.6976017951965332
vn 0.4358404874801636 -0.8988106846809387 0.04671620950102806
vn 0.27259281277656555 -0.8296998739242554 0.4871254861354828
vn 0.21876229345798492 -0.04702866077423096 0.9746443033218384
vn 0.12233500182628632 0.7163785099983215 0.686903178691864
vn -0.3023991882801056 -0.018084460869431496 0.9530099034309387
vn -0.2617715001106262 0.5849660038948059 0.767652690410614
vn -0.7086712718009949 0.15984700620174408 -0.6871926784515381
vn -0.6363229751586914 0.14058080315589905 -0.75850510597229
vn -0.5585365295410156 -0.14756600558757782 -0.8162482976913452
# Triangles - count=81.
f 14//1 34//2 2//3
f 14//1 15//4 34//2
f 34//2 15//4 16//5
f 34//2 4//6 2//3
f 3//7 16//5 15//4
f 16//5 18//8 17//9
f 18//8 26//10 6//11
f 19//12 26//10 7//13
f 35//14 19//12 7//13
f 8//15 36//16 22//17
f 1//18 33//19 25//20
f 27//21 11//22 23//23
f 27//21 9//24 11//22
f 9//24 10//25 11//22
f 11//22 10//25 28//26
f 12//27 25//20 29//28
f 28//26 29//28 13//29
f 33//19 30//30 37//31
f 30//30 33//19 14//1
f 39//32 30//30 38//33
f 40//34 2//3 4//6
f 30//30 40//34 31//35
f 41//36 13//29 37//31
f 41//36 11//22 13//29
f 43//37 31//35 24//38
f 42//39 17//9 6//11
f 42//39 24//38 31//35
f 42//39 4//6 17//9
f 43//37 23//23 11//22
f 23//23 24//38 21//40
f 21//40 24//38 44//41
f 44//41 6//11 19//12
f 7//13 20//42 22//17
f 5//43 9//24 20//42
f 18//8 20//42 26//10
f 32//44 12//27 10//25
f 32//44 1//18 25//20
f 1//18 15//4 14//1
f 1//18 3//7 15//4
f 34//2 16//5 4//6
f 16//5 3//7 5//43
f 16//5 17//9 4//6
f 5//43 18//8 16//5
f 17//9 18//8 6//11
f 19//12 6//11 26//10
f 26//10 20//42 7//13
f 19//12 35//14 21//40
f 1//18 14//1 33//19
f 21//40 8//15 23//23
f 22//17 36//16 7//13
f 27//21 23//23 8//15
f 27//21 8//15 22//17
f 27//21 22//17 9//24
f 10//25 12//27 28//26
f 13//29 11//22 28//26
f 28//26 12//27 29//28
f 37//31 13//29 33//19
f 33//19 13//29 29//28
f 33//19 29//28 25//20
f 39//32 38//33 2//3
f 38//33 14//1 2//3
f 38//33 30//30 14//1
f 37//31 30//30 31//35
f 39//32 40//34 30//30
f 40//34 39//32 2//3
f 31//35 41//36 37//31
f 4//6 42//39 40//34
f 40//34 42//39 31//35
f 41//36 43//37 11//22
f 43//37 41//36 31//35
f 23//23 43//37 24//38
f 19//12 21//40 44//41
f 44//41 42//39 6//11
f 42//39 44//41 24//38
f 20//42 9//24 22//17
f 10//25 9//24 32//44
f 9//24 5//43 32//44
f 18//8 5//43 20//42
f 12//27 32//44 25//20
f 32//44 3//7 1//18
f 32//44 5//43 3//7
