# Vertices - count=34.
v 0.0010419479804113507 -0.012469409964978695 -0.007429658900946379
v 0.0008541989955119789 -0.012787160463631153 -0.0029183030128479004
v 0.0014770620036870241 0.0033741591032594442 0.008506298065185547
v 0.0001195619988720864 0.016092240810394287 0.007436810992658138
v 0.0015494220424443483 0.008879125118255615 0.01332694012671709
v 0.00029116301448084414 0.012236169539391994 0.013066530227661133
v 0.00048795199836604297 0.010508409701287746 0.014074919745326042
v -9.452409722143784e-05 -0.01022380031645298 0.0020086760632693768
v 0.0016148679424077272 -0.006339371204376221 0.004787504207342863
v 0.0015324950218200684 -0.006611405871808529 0.006278574001044035
v 0.0035713310353457928 0.0005016530049033463 0.012373859994113445
v 0.0017021290259435773 -0.003094553016126156 0.009643553756177425
v 0.0005972950020805001 -0.010527550242841244 -0.01027476042509079
v -0.00016027200035750866 -0.009510098956525326 -0.010730080306529999
v -0.00018052299856208265 0.001431046985089779 -0.0043891072273254395
v 0.00028789599309675395 -0.013411460444331169 -0.005244194995611906
v -0.0003484110056888312 0.0165671706199646 0.0074720378033816814
v -0.00029161100974306464 6.816659879405051e-05 0.01160150021314621
v 0.0034221410751342773 -0.0019611709285527468 0.011537250131368637
v 0.0033276670146733522 0.0024212589487433434 0.013861649669706821
v -0.0004674019874073565 -0.0125917699187994 -0.002675950061529875
v -0.0012653470039367676 0.0011807079426944256 0.008576451800763607
v -0.0004935599863529205 0.010785520076751709 0.013558919541537762
v -0.000801753019914031 -0.006649374030530453 0.00380855705589056
v -0.0014429680304601789 0.005837261211127043 0.014263680204749107
v -0.0025420780293643475 0.001969635020941496 0.014128020033240318
v -0.0007580239907838404 -0.010649260133504868 -0.01015739981085062
v -0.0006110320100560784 0.010967549867928028 0.0044865598902106285
v -0.0008925709989853203 -0.012539439834654331 -0.007350921165198088
v -0.0024895069655030966 -0.0019222489790990949 0.01183645986020565
v 0.00022900200565345585 0.011789020150899887 0.004846810828894377
v 0.00035047001438215375 0.004678905010223389 0.013652379624545574
v -0.0009786130394786596 0.008040904067456722 0.011958950199186802
v -0.001352368970401585 -0.004354894161224365 0.008883236907422543
# Texture coordinates - count=0.
# Normals - count=34.
vn 0.9654883742332458 0.14027270674705505 -0.21944430470466614
vn 0.8068392276763916 0.5507317781448364 -0.21378740668296814
vn 0.9378851056098938 0.26301848888397217 0.22625839710235596
vn 0.9960933923721313 -0.03918664902448654 -0.07913470268249512
vn 0.6091564297676086 -0.7565509080886841 0.23782239854335785
vn 0.20850710570812225 0.6999008059501648 0.6831278800964355
vn -0.24858930706977844 0.9574583768844604 -0.14654949307441711
vn 0.2529680132865906 0.36828240752220154 0.8946369886398315
vn 0.999656081199646 0.023611539974808693 0.01141779962927103
vn 0.6158931255340576 -0.5413578152656555 0.5723699927330017
vn 0.6200810074806213 -0.170291006565094 0.76583331823349
vn 0.7134990096092224 -0.5988128781318665 -0.3637892007827759
vn 0.6213073134422302 0.43411320447921753 -0.6523212194442749
vn -0.024323519319295883 0.566125214099884 -0.8239604234695435
vn 0.6618542075157166 -0.3250390887260437 -0.675498902797699
vn -0.6944373250007629 -0.38417789340019226 -0.6084113121032715
vn -0.28970080614089966 -0.7806640863418579 0.5537483096122742
vn -0.6286305785179138 0.1212221011519432 0.7681983709335327
vn -0.33387720584869385 -0.618833601474762 0.7110351920127869
vn 0.34316790103912354 -0.4660660922527313 0.815486490726471
vn 0.5477892756462097 -0.6986287832260132 0.4602659046649933
vn -0.7549721002578735 0.33433741331100464 0.5641239881515503
vn -0.09114497154951096 0.2483386993408203 -0.9643756747245789
vn -0.8133655786514282 0.3637670874595642 -0.45399340987205505
vn -0.34315159916877747 -0.7996376156806946 0.4927743971347809
vn -0.3270573019981384 -0.711668074131012 0.6217411756515503
vn -0.5836111903190613 -0.5583863854408264 0.58957839012146
vn -0.8673710823059082 0.2337850034236908 -0.4393312931060791
vn -0.994868278503418 -0.09617947787046432 -0.031410448253154755
vn -0.9905565977096558 0.1323786973953247 -0.0356859490275383
vn -0.5912294983863831 -0.25342950224876404 0.7656508088111877
vn -0.7085257172584534 -0.6254733800888062 -0.32676368951797485
vn -0.6326950788497925 -0.7222315073013306 0.27942579984664917
vn 0.049075059592723846 -0.9971526265144348 -0.05725603923201561
# Triangles - count=64.
f 3//1 4//2 5//3
f 3//1 9//4 2//5
f 4//2 6//6 5//3
f 6//6 4//2 17//7
f 7//8 5//3 6//6
f 11//9 19//10 9//4
f 11//9 3//1 5//3
f 20//11 5//3 7//8
f 1//12 31//13 3//1
f 1//12 15//14 31//13
f 13//15 1//12 27//16
f 32//17 20//11 25//18
f 12//19 18//20 10//21
f 19//10 11//9 20//11
f 19//10 32//17 12//19
f 23//22 7//8 6//6
f 27//16 15//14 14//23
f 28//24 31//13 15//14
f 8//25 10//21 34//26
f 30//27 22//28 24//29
f 33//30 22//28 26//31
f 33//30 26//31 25//18
f 28//24 24//29 33//30
f 29//32 21//33 24//29
f 29//32 15//14 27//16
f 28//24 17//7 31//13
f 28//24 33//30 17//7
f 16//34 21//33 29//32
f 21//33 16//34 2//5
f 18//20 34//26 10//21
f 18//20 30//27 34//26
f 26//31 32//17 25//18
f 26//31 18//20 32//17
f 1//12 3//1 2//5
f 3//1 31//13 4//2
f 2//5 16//34 1//12
f 2//5 10//21 8//25
f 10//21 2//5 9//4
f 13//15 14//23 15//14
f 3//1 11//9 9//4
f 1//12 16//34 29//32
f 12//19 10//21 19//10
f 19//10 10//21 9//4
f 20//11 11//9 5//3
f 20//11 7//8 25//18
f 1//12 13//15 15//14
f 4//2 31//13 17//7
f 12//19 32//17 18//20
f 19//10 20//11 32//17
f 33//30 23//22 17//7
f 24//29 22//28 33//30
f 33//30 25//18 23//22
f 17//7 23//22 6//6
f 24//29 21//33 8//25
f 21//33 2//5 8//25
f 24//29 8//25 34//26
f 7//8 23//22 25//18
f 22//28 30//27 26//31
f 13//15 27//16 14//23
f 34//26 30//27 24//29
f 28//24 29//32 24//29
f 29//32 28//24 15//14
f 1//12 29//32 27//16
f 18//20 26//31 30//27
