# Vertices - count=34.
v 0.0032333130948245525 -0.011448199860751629 0.001590906991623342
v 0.0048773279413580894 0.07891470193862915 0.010700100101530552
v 0.0047234888188540936 0.035054560750722885 0.01724373921751976
v 0.006924033164978027 -0.01141010969877243 0.022637659683823586
v 0.0060901641845703125 0.03230857104063034 0.024543460458517075
v -0.001177011989057064 0.034275878220796585 0.02366470918059349
v 0.0008840819937177002 -0.011509830132126808 0.02229969948530197
v 0.014646350406110287 0.025610560551285744 0.03511691093444824
v 0.005226075183600187 0.030405279248952866 0.03324025124311447
v 0.00296795298345387 0.017658410593867302 -0.021451350301504135
v 0.0032913079485297203 -0.03549705818295479 -0.008749364875257015
v 0.003376543056219816 -0.03654389828443527 -0.021849390119314194
v -0.0033552050590515137 -0.037550151348114014 -0.01992308907210827
v 0.0029955499339848757 0.07249552011489868 -0.007986903190612793
v 0.014568150043487549 -0.0020529029425233603 0.03852688893675804
v 0.014077359810471535 0.026684990152716637 0.04410611838102341
v 0.009601294063031673 0.01923321932554245 0.04678231105208397
v -0.0038678639102727175 -0.01101278979331255 0.004693806171417236
v -0.004422842990607023 0.07855266332626343 0.010181419551372528
v -0.004647432826459408 0.07049130648374557 0.015205499716103077
v -0.00455129100009799 0.031733568757772446 0.017955120652914047
v -0.007148921024054289 -0.011134680360555649 0.022911900654435158
v -0.015161270275712013 -0.00328135397285223 0.03500597923994064
v -0.014554440043866634 0.027126720175147057 0.03561937063932419
v -0.0038484930992126465 -0.006758331786841154 0.02929895929992199
v -0.0006710850284434855 -0.029146429151296616 -0.02821815013885498
v -0.004009068012237549 0.03015178069472313 -0.01843946985900402
v -0.003074824111536145 -0.035179249942302704 -0.008086085319519043
v -0.01296108029782772 -0.0005831560119986534 0.04013776034116745
v -0.013915769755840302 0.028864560648798943 0.04404883831739426
v -0.005120098125189543 0.03106576018035412 0.03321719169616699
v -0.009428322315216064 0.021241240203380585 0.04651165008544922
v -0.003240823047235608 0.07310634106397629 -0.006813584826886654
v -0.0028447499498724937 -0.018605699762701988 -0.0037370920181274414
# Texture coordinates - count=0.
# Normals - count=34.
vn 0.8462526202201843 -0.4746182858943939 0.24206219613552094
vn 0.6210896968841553 0.12485209852457047 -0.7737308740615845
vn 0.5907567739486694 0.7399737238883972 0.32162928581237793
vn -0.5505865812301636 0.7323912978172302 0.4005714952945709
vn -0.5682879090309143 0.19954459369182587 0.7982674837112427
vn 0.6227747797966003 -0.6348686218261719 0.45726731419563293
vn -0.5976660251617432 -0.5822442770004272 0.55116868019104
vn 0.8699404001235962 0.3427133858203888 0.3546142876148224
vn 0.6205868721008301 -0.6433699131011963 -0.4482713043689728
vn 0.6017395257949829 -0.5793552994728088 0.5497791171073914
vn 0.6165757775306702 -0.7847766280174255 0.06292860954999924
vn 0.9109454154968262 0.3289523124694824 -0.24893559515476227
vn -0.4841800034046173 0.720040500164032 0.4971030056476593
vn 0.7488322854042053 0.662272572517395 -0.025401709601283073
vn -0.20270679891109467 0.9458599090576172 0.25349390506744385
vn -0.12781749665737152 -0.16842789947986603 -0.9773918986320496
vn -0.05896203964948654 -0.925727903842926 0.3735660910606384
vn 0.4720098078250885 0.6422957181930542 0.6038733124732971
vn -0.28418540954589844 0.018148889765143394 0.9585976004600525
vn -0.7089908719062805 0.1387106031179428 -0.6914414763450623
vn -0.7635611891746521 -0.6400451064109802 0.08553820103406906
vn -0.9263771772384644 0.376510888338089 0.008061349391937256
vn -0.8541191816329956 -0.19268910586833954 0.4830647110939026
vn 0.2793886959552765 0.04982452839612961 0.9588844776153564
vn 0.7339075803756714 0.5091753005981445 0.44957780838012695
vn -0.48222869634628296 0.605952799320221 0.6326742172241211
vn -0.6085342764854431 -0.766132116317749 -0.20670700073242188
vn 0.5440735816955566 -0.5039960741996765 0.6707993745803833
vn -0.6286169290542603 -0.7753031253814697 0.06120562180876732
vn -0.21038959920406342 -0.43983080983161926 0.8730894923210144
vn -0.8518416881561279 -0.5159081816673279 0.09057962149381638
vn -0.8985750079154968 0.3971512019634247 -0.1866386979818344
vn 0.5733531713485718 0.5246725082397461 -0.6292734146118164
vn -0.6179636716842651 0.5289191007614136 -0.5816919207572937
# Triangles - count=64.
f 1//1 10//2 2//3
f 19//4 20//5 2//3
f 11//6 1//1 28//7
f 3//8 2//3 20//5
f 11//6 12//9 1//1
f 15//10 4//11 8//12
f 9//13 5//14 6//15
f 26//16 10//2 12//9
f 9//13 6//15 7//17
f 15//10 16//18 17//19
f 15//10 8//12 16//18
f 16//18 8//12 5//14
f 17//19 9//13 7//17
f 20//5 19//4 27//20
f 18//21 21//22 20//5
f 1//1 34//23 28//7
f 18//21 34//23 1//1
f 32//24 31//25 30//26
f 7//17 18//21 1//1
f 21//22 6//15 3//8
f 13//27 27//20 26//16
f 25//28 22//29 7//17
f 22//29 29//30 23//31
f 22//29 25//28 29//30
f 6//15 21//22 24//32
f 28//7 34//23 13//27
f 27//20 34//23 18//21
f 27//20 14//33 10//2
f 33//34 19//4 2//3
f 30//26 29//30 32//24
f 21//22 23//31 24//32
f 1//1 3//8 4//11
f 15//10 17//19 7//17
f 17//19 16//18 9//13
f 7//17 1//1 4//11
f 5//14 4//11 3//8
f 6//15 5//14 3//8
f 5//14 8//12 4//11
f 1//1 12//9 10//2
f 11//6 13//27 12//9
f 2//3 10//2 14//33
f 4//11 15//10 7//17
f 9//13 16//18 5//14
f 18//21 20//5 27//20
f 18//21 22//29 21//22
f 20//5 21//22 3//8
f 29//30 25//28 32//24
f 26//16 27//20 10//2
f 7//17 22//29 18//21
f 27//20 13//27 34//23
f 12//9 13//27 26//16
f 6//15 30//26 31//25
f 30//26 6//15 24//32
f 11//6 28//7 13//27
f 27//20 33//34 14//33
f 33//34 27//20 19//4
f 33//34 2//3 14//33
f 31//25 32//24 25//28
f 31//25 25//28 6//15
f 25//28 7//17 6//15
f 23//31 30//26 24//32
f 30//26 23//31 29//30
f 21//22 22//29 23//31
f 1//1 2//3 3//8
