# Vertices - count=34.
v 0.0011276600416749716 -0.014323290437459946 -0.006450891029089689
v 0.0009244839893653989 -0.014108589850366116 -0.0015610449481755495
v 0.0015985959907993674 0.004676817916333675 0.008729933761060238
v 0.00012937499559484422 0.018219469115138054 0.006011902820318937
v 0.0016768570058047771 0.011190109886229038 0.01323437038809061
v 0.0003151239943690598 0.014767520129680634 0.012540450319647789
v 0.0005281069898046553 0.013034160248935223 0.013837690465152264
v -0.00010226300219073892 -0.010744979605078697 0.003420352004468441
v 0.0017477270448580384 -0.0062257638201117516 0.005929172039031982
v 0.0016585580306127667 -0.006334424018859863 0.007565975189208984
v 0.0038651220966130495 0.0020651218947023153 0.013242599554359913
v 0.001842200057581067 -0.0021381969563663006 0.01075034961104393
v 0.000646415981464088 -0.012586169876158237 -0.009749352000653744
v -0.0001734649995341897 -0.011548340320587158 -0.0103643499314785
v -0.00019539099594112486 0.0009975270368158817 -0.004895627032965422
v 0.00031159500940702856 -0.015066679567098618 -0.003984928131103516
v -0.00037709000753238797 0.018734389916062355 0.005991159938275814
v -0.0003155590093228966 0.001503765000961721 0.012465589679777622
v 0.0037036531139165163 -0.0006860970170237124 0.012646730057895184
v 0.0036013720091432333 0.004312514793127775 0.014605579897761345
v -0.0005058189854025841 -0.013868680223822594 -0.0013245940208435059
v -0.0013693569926545024 0.0023269650992006063 0.009075820446014404
v -0.0005341380019672215 0.013268530368804932 0.013248739764094353
v -0.0008676649886183441 -0.006679772865027189 0.0049148788675665855
v -0.0015616409946233034 0.008035004138946533 0.01461660023778677
v -0.002751111052930355 0.003859757911413908 0.014947650022804737
v -0.0008203780162148178 -0.012702579610049725 -0.009608209133148193
v -0.0006613049772568047 0.012345610186457634 0.0034716720692813396
v -0.0009659759816713631 -0.014388849958777428 -0.0063575501553714275
v -0.0026942489203065634 -0.0006073680124245584 0.012963649816811085
v 0.0002478199894540012 0.013273229822516441 0.003757714992389083
v 0.000379333010641858 0.006714105140417814 0.014102219603955746
v -0.0010590549791231751 0.010120210237801075 0.011866860091686249
v -0.0014635920524597168 -0.0035870668943971395 0.010088260285556316
# Texture coordinates - count=0.
# Normals - count=34.
vn 0.9654890894889832 0.11439870297908783 -0.23397399485111237
vn 0.8068372011184692 0.5227906107902527 -0.27514320611953735
vn 0.937871515750885 0.2871358096599579 0.1948082000017166
vn 0.9960932731628418 -0.04794514179229736 -0.07415854185819626
vn 0.6091268062591553 -0.7245674729347229 0.322438508272171
vn 0.20850870013237 0.7731735110282898 0.5989382266998291
vn -0.2485934942960739 0.9345272779464722 -0.2546761929988861
vn 0.25297030806541443 0.4678120017051697 0.8468518257141113
vn 0.9996560215950012 0.02476119063794613 0.008649051189422607
vn 0.6158968210220337 -0.4726203978061676 0.630318284034729
vn 0.6200838088989258 -0.08192747086286545 0.7802460789680481
vn 0.7135003209114075 -0.6363579034805298 -0.2931995987892151
vn 0.621303915977478 0.35696840286254883 -0.69753497838974
vn -0.024327630177140236 0.4685637950897217 -0.8830947875976562
vn 0.6618531942367554 -0.3998810946941376 -0.6340705752372742
vn -0.6944378018379211 -0.4509952962398529 -0.5606778264045715
vn -0.2896980047225952 -0.7124894261360168 0.63908851146698
vn -0.6286281943321228 0.2079537957906723 0.7493876814842224
vn -0.333871990442276 -0.5337957739830017 0.7769116759300232
vn 0.34317290782928467 -0.37012070417404175 0.8632745742797852
vn 0.5477926731109619 -0.6416397094726562 0.5368629097938538
vn -0.754970371723175 0.3964309096336365 0.5223621726036072
vn -0.09114634245634079 0.1368498057126999 -0.9863895773887634
vn -0.813124418258667 0.3074800968170166 -0.49425190687179565
vn -0.34314870834350586 -0.7382887005805969 0.5806708931922913
vn -0.3270533084869385 -0.636198878288269 0.6987754702568054
vn -0.583607017993927 -0.4875805079936981 0.6493598222732544
vn -0.8673473000526428 0.18221479654312134 -0.46314871311187744
vn -0.9951090812683105 -0.09636735171079636 -0.021708659827709198
vn -0.990557074546814 0.12744860351085663 -0.05053209885954857
vn -0.5912253260612488 -0.1645451933145523 0.7895426154136658
vn -0.7085211873054504 -0.658633828163147 -0.2533760070800781
vn -0.632692813873291 -0.6856942772865295 0.3598935008049011
vn 0.04912018030881882 -0.9971786141395569 0.056763578206300735
# Triangles - count=64.
f 3//1 4//2 5//3
f 3//1 9//4 2//5
f 4//2 6//6 5//3
f 6//6 4//2 17//7
f 7//8 5//3 6//6
f 11//9 19//10 9//4
f 11//9 3//1 5//3
f 20//11 5//3 7//8
f 1//12 31//13 3//1
f 1//12 15//14 31//13
f 13//15 1//12 27//16
f 32//17 20//11 25//18
f 12//19 18//20 10//21
f 19//10 11//9 20//11
f 19//10 32//17 12//19
f 23//22 7//8 6//6
f 27//16 15//14 14//23
f 28//24 31//13 15//14
f 8//25 10//21 34//26
f 30//27 22//28 24//29
f 33//30 22//28 26//31
f 33//30 26//31 25//18
f 29//32 21//33 24//29
f 29//32 15//14 27//16
f 28//24 17//7 31//13
f 28//24 33//30 17//7
f 16//34 21//33 29//32
f 21//33 16//34 2//5
f 18//20 34//26 10//21
f 18//20 30//27 34//26
f 26//31 32//17 25//18
f 26//31 18//20 32//17
f 1//12 3//1 2//5
f 3//1 31//13 4//2
f 2//5 16//34 1//12
f 2//5 10//21 8//25
f 10//21 2//5 9//4
f 13//15 14//23 15//14
f 3//1 11//9 9//4
f 1//12 16//34 29//32
f 12//19 10//21 19//10
f 19//10 10//21 9//4
f 20//11 11//9 5//3
f 20//11 7//8 25//18
f 1//12 13//15 15//14
f 4//2 31//13 17//7
f 12//19 32//17 18//20
f 19//10 20//11 32//17
f 33//30 23//22 17//7
f 24//29 22//28 33//30
f 33//30 25//18 23//22
f 17//7 23//22 6//6
f 24//29 21//33 8//25
f 21//33 2//5 8//25
f 24//29 8//25 34//26
f 7//8 23//22 25//18
f 22//28 30//27 26//31
f 13//15 27//16 14//23
f 34//26 30//27 24//29
f 29//32 28//24 15//14
f 1//12 29//32 27//16
f 24//29 28//24 29//32
f 18//20 26//31 30//27
f 24//29 33//30 28//24
