# Vertices - count=34.
v 0.007684766780585051 -0.015418999828398228 -0.010043499991297722
v 0.011725660413503647 0.014320430345833302 0.037978820502758026
v 0.008768676780164242 0.05015169829130173 0.013297789730131626
v 0.0006103200139477849 -0.019783910363912582 0.0008287230157293379
v 0.018966730684041977 0.07667409628629684 0.043296270072460175
v -0.001012146007269621 0.07091975212097168 0.03194295987486839
v 0.0009513089898973703 0.009590028785169125 0.03105193004012108
v 0.028423240408301353 0.07224678248167038 0.05099713057279587
v 0.010760540142655373 0.07555574178695679 0.04921387881040573
v 0.010937569662928581 0.05099773034453392 0.06826847046613693
v -0.0018186559900641441 0.013847880065441132 -0.05329035967588425
v 0.00035176199162378907 -0.041781481355428696 -0.04258476942777634
v 0.00602829409763217 -0.057704560458660126 -0.025535879656672478
v 0.006146550178527832 -0.043512579053640366 0.0007600070093758404
v 8.89254006324336e-05 0.04335122928023338 -0.03786002844572067
v 0.0069078197702765465 0.027477970346808434 -0.051320068538188934
v -0.007608354091644287 0.028901390731334686 -0.04842530936002731
v 0.028758520260453224 0.02326864004135132 0.06910829991102219
v 0.022716699168086052 0.06014353036880493 0.07828181236982346
v 0.02691804990172386 0.07922583073377609 0.06837158650159836
v -0.007544397842139006 -0.021541409194469452 -0.011416729539632797
v -0.006647109054028988 -0.0006170169799588621 0.01123720034956932
v -0.008607028983533382 0.05028824880719185 0.014335329644382
v -0.015681320801377296 0.01678472012281418 0.04999572038650513
v -0.013772719539701939 0.06234496086835861 0.031866129487752914
v -0.03028886951506138 0.02746647037565708 0.07020013779401779
v -0.0282401405274868 0.07530193775892258 0.050892528146505356
v -0.018175890669226646 0.02387523092329502 0.06785868853330612
v -0.006558119785040617 -0.04229521006345749 0.0011668199440464377
v -0.026316160336136818 0.08032923191785812 0.06994122266769409
v -0.017145570367574692 0.08159559220075607 0.0491214282810688
v -0.012754909694194794 0.06186734884977341 0.07194530218839645
v 0.00010697200195863843 0.0186383705586195 0.04727929085493088
v -0.006470382213592529 -0.056545671075582504 -0.023902950808405876
# Texture coordinates - count=0.
# Normals - count=34.
vn 0.7872642874717712 -0.6155501008033752 -0.036236878484487534
vn 0.9902988076210022 -0.062027089297771454 0.12434300035238266
vn 0.7366601228713989 0.5316426753997803 -0.4179568886756897
vn 0.03140931949019432 0.8965597748756409 -0.44180768728256226
vn 0.6024242043495178 0.30790430307388306 -0.7363967895507812
vn -0.7586048245429993 0.504603922367096 -0.4121820032596588
vn 0.0745745301246643 -0.8677222728729248 0.4914233088493347
vn -0.0016966459807008505 -0.3910202980041504 -0.9203805923461914
vn -0.26071619987487793 -0.10962270200252533 -0.95917147397995
vn -0.6132962107658386 -0.3255228102207184 0.7196546196937561
vn 0.594724714756012 -0.42593780159950256 0.681820809841156
vn 0.11138729751110077 -0.30347388982772827 0.9463068246841431
vn 0.6124311089515686 -0.6049339175224304 0.5089039206504822
vn 0.4084061086177826 0.7762169241905212 -0.4803037941455841
vn 0.8475499749183655 0.20727699995040894 -0.4885646104812622
vn -0.6369370818138123 0.7267025709152222 0.25732168555259705
vn -0.039175450801849365 0.9279227256774902 -0.37070849537849426
vn 0.5382992029190063 -0.8193910717964172 -0.1970590054988861
vn 0.045486148446798325 -0.7208001017570496 0.6916490197181702
vn 0.31297749280929565 0.8069307804107666 0.5009070038795471
vn -0.9848806262016296 -0.04443144053220749 0.16743989288806915
vn -0.7155433297157288 0.3411352038383484 -0.6096101999282837
vn -0.6245077252388 -0.7750884294509888 -0.09606367349624634
vn 0.5571056008338928 0.1893243044614792 0.8085727095603943
vn -0.7646576762199402 -0.4655402898788452 0.44561290740966797
vn 0.2776137888431549 -0.6246572136878967 0.7298862934112549
vn -0.32395219802856445 0.7323135733604431 0.5989757180213928
vn -0.5976908206939697 -0.8000922799110413 0.05116574838757515
vn 0.11239340156316757 0.9857109785079956 -0.12546589970588684
vn -0.8887816071510315 0.07516884058713913 -0.45212510228157043
vn -0.8450583815574646 0.3944301903247833 -0.3609727919101715
vn -0.7865363955497742 0.019070079550147057 0.617249608039856
vn -0.889363706111908 -0.35325270891189575 0.2902500033378601
vn 0.08403658121824265 0.2203083038330078 0.9718034863471985
# Triangles - count=64.
f 2//1 1//2 3//3
f 15//4 3//3 16//5
f 23//6 3//3 15//4
f 7//7 1//2 2//1
f 16//5 12//8 11//9
f 29//10 14//11 4//12
f 7//7 2//1 18//13
f 2//1 5//14 18//13
f 8//15 18//13 5//14
f 9//16 5//14 6//17
f 13//18 1//2 14//11
f 9//16 6//17 33//19
f 18//13 8//15 20//20
f 5//14 9//16 20//20
f 21//21 17//22 34//23
f 23//6 15//4 17//22
f 32//24 26//25 28//26
f 32//24 30//27 26//25
f 11//9 12//8 17//22
f 23//6 6//17 3//3
f 28//26 24//28 7//7
f 24//28 28//26 26//25
f 31//29 25//30 27//31
f 29//10 21//21 34//23
f 16//5 17//22 15//4
f 33//19 28//26 7//7
f 31//29 27//31 30//27
f 18//13 10//32 33//19
f 4//12 7//7 22//33
f 7//7 4//12 1//2
f 10//32 20//20 9//16
f 23//6 24//28 25//30
f 3//3 5//14 2//1
f 6//17 5//14 3//3
f 7//7 18//13 33//19
f 16//5 13//18 12//8
f 16//5 11//9 17//22
f 4//12 14//11 1//2
f 9//16 33//19 10//32
f 19//34 18//13 20//20
f 16//5 1//2 13//18
f 5//14 20//20 8//15
f 21//21 23//6 17//22
f 23//6 21//21 22//33
f 21//21 4//12 22//33
f 30//27 32//24 31//29
f 14//11 34//23 13//18
f 7//7 24//28 22//33
f 23//6 31//29 6//17
f 31//29 23//6 25//30
f 25//30 26//25 27//31
f 34//23 17//22 12//8
f 21//21 29//10 4//12
f 34//23 12//8 13//18
f 32//24 6//17 31//29
f 32//24 33//19 6//17
f 33//19 32//24 28//26
f 26//25 30//27 27//31
f 18//13 19//34 10//32
f 10//32 19//34 20//20
f 23//6 22//33 24//28
f 16//5 3//3 1//2
f 14//11 29//10 34//23
f 25//30 24//28 26//25
