# Vertices - count=34.
v 0.002495347987860441 -0.013623050414025784 0.0022655120119452477
v 0.013080770149827003 0.09166795015335083 0.011379529722034931
v 0.008025169372558594 0.04075299948453903 0.019797559827566147
v 0.005512237083166838 -0.013460209593176842 0.02706754021346569
v 0.00889050867408514 0.03758709877729416 0.02845478057861328
v 0.0006913859979249537 0.040592011064291 0.026938369497656822
v -0.0015032290248200297 -0.012974079698324203 0.026296550408005714
v 0.017516370862722397 0.029168540611863136 0.041455138474702835
v 0.0071620941162109375 0.03566062077879906 0.038588158786296844
v 0.006560385227203369 0.019765909761190414 -0.02517532929778099
v 0.0007361380266956985 -0.04187970981001854 -0.009370683692395687
v 0.00152510404586792 -0.04341334104537964 -0.02464050054550171
v -0.0065253968350589275 -0.043860308825969696 -0.022795140743255615
v 0.01137297973036766 0.08394551277160645 -0.010439570061862469
v 0.014393210411071777 -0.0029632439836859703 0.045928411185741425
v 0.016417380422353745 0.030687209218740463 0.0518948994576931
v 0.01028698030859232 0.022522859275341034 0.054872870445251465
v -0.005909264087677002 -0.012326180003583431 0.005435585044324398
v 0.002257049083709717 0.09217368811368942 0.010198050178587437
v 0.0008669960079714656 0.0829247236251831 0.016194339841604233
v -0.0031459920573979616 0.03783857077360153 0.020106909796595573
v -0.010846490040421486 -0.011711410246789455 0.026501469314098358
v -0.020100470632314682 -0.0014730090042576194 0.039978139102458954
v -0.016326839104294777 0.033895958214998245 0.04018586128950119
v -0.006948887836188078 -0.006798564922064543 0.03408621996641159
v -0.0020404451061040163 -0.034537430852651596 -0.03246229141950607
v -0.0004630770126823336 0.03509186953306198 -0.022320499643683434
v -0.006677149794995785 -0.040850989520549774 -0.009000717662274837
v -0.017577700316905975 0.0015671249711886048 0.04605865105986595
v -0.015919199213385582 0.036052219569683075 0.050035830587148666
v -0.004804133903235197 0.037474509328603745 0.03790140151977539
v -0.011627430096268654 0.026777619495987892 0.05332911014556885
v 0.00410956097766757 0.08531433343887329 -0.009471236728131771
v -0.004981696140021086 -0.021469710394740105 -0.004206836223602295
# Texture coordinates - count=0.
# Normals - count=34.
vn 0.7878304123878479 -0.5410264134407043 0.29430249333381653
vn 0.6690238118171692 0.0552554689347744 -0.7411842942237854
vn 0.6355869174003601 0.692442774772644 0.3413974940776825
vn -0.5046128034591675 0.7850713729858398 0.3592059910297394
vn -0.5894414782524109 0.26379621028900146 0.7635250091552734
vn 0.5403196811676025 -0.6770423054695129 0.49966830015182495
vn -0.6740850210189819 -0.5173153281211853 0.5272517204284668
vn 0.8769186735153198 0.273281991481781 0.39538678526878357
vn 0.5845075249671936 -0.7033990025520325 -0.4044514000415802
vn 0.5194736123085022 -0.6180368065834045 0.5900658965110779
vn 0.5415759086608887 -0.8336969017982483 0.10791300237178802
vn 0.9479030966758728 0.24398760497570038 -0.20481669902801514
vn -0.44465118646621704 0.7689583897590637 0.4593346118927002
vn 0.8040794134140015 0.594504714012146 0.004546463023871183
vn -0.1322437971830368 0.9647074937820435 0.227708101272583
vn -0.09097813814878464 -0.17619450390338898 -0.9801421165466309
vn -0.16157850623130798 -0.9081947207450867 0.38610199093818665
vn 0.49424320459365845 0.6110435724258423 0.6183441877365112
vn -0.3309932053089142 0.06176704168319702 0.9416095018386841
vn -0.6572381258010864 0.18561139702796936 -0.7304701209068298
vn -0.8217431902885437 -0.5673860907554626 0.05302052944898605
vn -0.8891186118125916 0.4552207887172699 -0.04735153168439865
vn -0.8916506767272949 -0.10849619656801224 0.43953120708465576
vn 0.19275279343128204 0.023060020059347153 0.980976402759552
vn 0.7511847019195557 0.45274248719215393 0.4803602993488312
vn -0.46856358647346497 0.6526181101799011 0.5954309105873108
vn -0.661534309387207 -0.7146685719490051 -0.22720329463481903
vn 0.4623478949069977 -0.5356230735778809 0.7066416144371033
vn -0.696250319480896 -0.7167192101478577 0.039357900619506836
vn -0.3380638062953949 -0.35177499055862427 0.8729074001312256
vn -0.9017689824104309 -0.42741039395332336 0.06428860872983932
vn -0.8495298027992249 0.4694913923740387 -0.24057680368423462
vn 0.6489353775978088 0.46050968766212463 -0.6056513786315918
vn -0.53831547498703 0.5686097741127014 -0.6220123767852783
# Triangles - count=64.
f 1//1 10//2 2//3
f 19//4 20//5 2//3
f 11//6 1//1 28//7
f 3//8 2//3 20//5
f 11//6 12//9 1//1
f 15//10 4//11 8//12
f 9//13 5//14 6//15
f 26//16 10//2 12//9
f 9//13 6//15 7//17
f 15//10 16//18 17//19
f 15//10 8//12 16//18
f 16//18 8//12 5//14
f 17//19 9//13 7//17
f 20//5 19//4 27//20
f 18//21 21//22 20//5
f 1//1 34//23 28//7
f 18//21 34//23 1//1
f 32//24 31//25 30//26
f 21//22 6//15 3//8
f 13//27 27//20 26//16
f 25//28 22//29 7//17
f 22//29 29//30 23//31
f 22//29 25//28 29//30
f 6//15 21//22 24//32
f 28//7 34//23 13//27
f 27//20 34//23 18//21
f 27//20 14//33 10//2
f 33//34 19//4 2//3
f 18//21 7//17 22//29
f 1//1 3//8 4//11
f 15//10 17//19 7//17
f 17//19 16//18 9//13
f 7//17 1//1 4//11
f 5//14 4//11 3//8
f 6//15 5//14 3//8
f 5//14 8//12 4//11
f 1//1 12//9 10//2
f 11//6 13//27 12//9
f 2//3 10//2 14//33
f 4//11 15//10 7//17
f 9//13 16//18 5//14
f 18//21 20//5 27//20
f 18//21 22//29 21//22
f 20//5 21//22 3//8
f 29//30 25//28 32//24
f 26//16 27//20 10//2
f 21//22 23//31 24//32
f 27//20 13//27 34//23
f 12//9 13//27 26//16
f 32//24 23//31 29//30
f 6//15 30//26 31//25
f 30//26 6//15 24//32
f 11//6 28//7 13//27
f 27//20 33//34 14//33
f 33//34 27//20 19//4
f 33//34 2//3 14//33
f 31//25 32//24 25//28
f 31//25 25//28 6//15
f 25//28 7//17 6//15
f 23//31 30//26 24//32
f 18//21 1//1 7//17
f 1//1 2//3 3//8
f 21//22 22//29 23//31
f 32//24 30//26 23//31
