# Vertices - count=34.
v 0.0022183649707585573 -0.012162979692220688 0.0016711950302124023
v 0.011628739535808563 0.08117461204528809 0.01241409033536911
v 0.007134377025067806 0.03571784123778343 0.018616309389472008
v 0.0049003357999026775 -0.012641009874641895 0.023715490475296974
v 0.007903634570538998 0.032687120139598846 0.026229970157146454
v 0.0006146199884824455 0.03539549931883812 0.024957889690995216
v -0.0013363950420171022 -0.012189620174467564 0.023042550310492516
v 0.015572009608149529 0.024879569187760353 0.03757137060165405
v 0.006367026828229427 0.030720770359039307 0.03518658131361008
v 0.005832194816321135 0.01819705031812191 -0.021875610575079918
v 0.0006544389761984348 -0.036980919539928436 -0.00937878992408514
v 0.0013558859936892986 -0.03796035051345825 -0.02298676036298275
v -0.005801081191748381 -0.03840386122465134 -0.021358070895075798
v 0.010110610164701939 0.07485990971326828 -0.007169246207922697
v 0.012795500457286835 -0.0037865040358155966 0.04073965176939964
v 0.0145950298756361 0.025967000052332878 0.046886738389730453
v 0.009145081043243408 0.018636999651789665 0.049328021705150604
v -0.0052533140406012535 -0.011090089567005634 0.004520772956311703
v 0.002006470924243331 0.0816536471247673 0.011376850306987762
v 0.000770734972320497 0.07328402251005173 0.01647317036986351
v -0.0027968280483037233 0.03312021121382713 0.018818020820617676
v -0.009642541408538818 -0.011072689667344093 0.02325635962188244
v -0.017869289964437485 -0.0023128390312194824 0.03548938035964966
v -0.014514559879899025 0.02911238931119442 0.036562081426382065
v -0.0061776041984558105 -0.006897388957440853 0.030119890347123146
v -0.001813948038034141 -0.029876409098505974 -0.029714640229940414
v -0.0004116689960937947 0.03174465149641037 -0.01895391009747982
v -0.005935966037213802 -0.036076001822948456 -0.009024201892316341
v -0.01562660001218319 0.00023611700453329831 0.04096918925642967
v -0.014152220450341702 0.030781259760260582 0.04536931961774826
v -0.00427091121673584 0.032349880784749985 0.03462183102965355
v -0.010336809791624546 0.022456759586930275 0.04806302860379219
v 0.003653407096862793 0.07605201005935669 -0.006274402141571045
v -0.004428683780133724 -0.018973350524902344 -0.004277466796338558
# Texture coordinates - count=0.
# Normals - count=34.
vn 0.7878302931785583 -0.54912269115448 0.2789047062397003
vn 0.6690245866775513 0.0761677622795105 -0.7393271923065186
vn 0.635590672492981 0.6825224757194519 0.3608151078224182
vn -0.5046138763427734 0.774612307548523 0.38123589754104614
vn -0.5894864797592163 0.24213939905166626 0.7706323266029358
vn 0.54029381275177 -0.6909307241439819 0.48030969500541687
vn -0.6740875244140625 -0.5319982767105103 0.512429416179657
vn 0.8769158720970154 0.2620101869106293 0.4029507040977478
vn 0.5845075249671936 -0.6916949152946472 -0.42415711283683777
vn 0.5194733142852783 -0.6344559788703918 0.5723749995231628
vn 0.5415763258934021 -0.8364118933677673 0.08432286232709885
vn 0.9479032158851624 0.24967549741268158 -0.1978428065776825
vn -0.44465088844299316 0.7556784749031067 0.48086971044540405
vn 0.8040794730186462 0.5941388010978699 0.02133660949766636
vn -0.13224419951438904 0.9578909277915955 0.25486570596694946
vn -0.09102106094360352 -0.14848199486732483 -0.9847174286842346
vn -0.15893089771270752 -0.9200139045715332 0.35821160674095154
vn 0.494242399930954 0.593334972858429 0.6353567242622375
vn -0.33099380135536194 0.035147011280059814 0.9429782032966614
vn -0.657237708568573 0.20616880059242249 -0.7249367237091064
vn -0.8199496269226074 -0.5711578130722046 0.03822975978255272
vn -0.8891186118125916 0.4563766121864319 -0.03447543829679489
vn -0.891650915145874 -0.12086740136146545 0.4362910985946655
vn 0.23241229355335236 0.017175370827317238 0.9724656939506531
vn 0.7511848211288452 0.43899300694465637 0.49295708537101746
vn -0.4597254991531372 0.6407468914985657 0.6148951053619385
vn -0.6615341901779175 -0.7079662084579468 -0.2472984939813614
vn 0.4623481035232544 -0.5553674101829529 0.6912317276000977
vn -0.6962502002716064 -0.7175450921058655 0.01909863017499447
vn -0.29312679171562195 -0.4268245995044708 0.8555099964141846
vn -0.8972210884094238 -0.43973758816719055 0.04031269997358322
vn -0.8495298027992249 0.47609850764274597 -0.22722139954566956
vn 0.6489362120628357 0.4774320125579834 -0.5924022793769836
vn -0.5383148789405823 0.5859515070915222 -0.6057046055793762
# Triangles - count=64.
f 1//1 10//2 2//3
f 19//4 20//5 2//3
f 11//6 1//1 28//7
f 3//8 2//3 20//5
f 11//6 12//9 1//1
f 15//10 4//11 8//12
f 9//13 5//14 6//15
f 26//16 10//2 12//9
f 9//13 6//15 7//17
f 15//10 16//18 17//19
f 15//10 8//12 16//18
f 16//18 8//12 5//14
f 17//19 9//13 7//17
f 20//5 19//4 27//20
f 18//21 21//22 20//5
f 1//1 34//23 28//7
f 18//21 34//23 1//1
f 32//24 31//25 30//26
f 7//17 18//21 1//1
f 21//22 6//15 3//8
f 13//27 27//20 26//16
f 25//28 22//29 7//17
f 22//29 29//30 23//31
f 22//29 25//28 29//30
f 6//15 21//22 24//32
f 28//7 34//23 13//27
f 27//20 34//23 18//21
f 27//20 14//33 10//2
f 33//34 19//4 2//3
f 30//26 29//30 32//24
f 21//22 23//31 24//32
f 1//1 3//8 4//11
f 15//10 17//19 7//17
f 17//19 16//18 9//13
f 7//17 1//1 4//11
f 5//14 4//11 3//8
f 6//15 5//14 3//8
f 5//14 8//12 4//11
f 1//1 12//9 10//2
f 11//6 13//27 12//9
f 2//3 10//2 14//33
f 4//11 15//10 7//17
f 9//13 16//18 5//14
f 18//21 20//5 27//20
f 18//21 22//29 21//22
f 20//5 21//22 3//8
f 29//30 25//28 32//24
f 26//16 27//20 10//2
f 7//17 22//29 18//21
f 27//20 13//27 34//23
f 12//9 13//27 26//16
f 6//15 30//26 31//25
f 30//26 6//15 24//32
f 11//6 28//7 13//27
f 27//20 33//34 14//33
f 33//34 27//20 19//4
f 33//34 2//3 14//33
f 31//25 32//24 25//28
f 31//25 25//28 6//15
f 25//28 7//17 6//15
f 23//31 30//26 24//32
f 30//26 23//31 29//30
f 21//22 22//29 23//31
f 1//1 2//3 3//8
