# Vertices - count=34.
v 0.0035493369214236736 -0.023945210501551628 -0.007325946819037199
v 0.0047566890716552734 0.007933436892926693 0.0076795220375061035
v 0.006397186778485775 0.049440499395132065 0.0076055522076785564
v 0.004039347171783447 0.07695543020963669 -0.020161030814051628
v 0.00639033317565918 0.03793269023299217 0.02574973925948143
v -0.0010530940489843488 0.07821816205978394 -0.009413777850568295
v 0.010416800156235695 -0.001427948009222746 0.03368264064192772
v -0.0021678199991583824 0.04025733098387718 0.03241937980055809
v 0.0003972149861510843 0.0015117520233616233 0.03188072890043259
v 0.018470339477062225 -0.001089273951947689 0.04615265130996704
v 0.018486609682440758 0.03207682818174362 0.04430675134062767
v 0.006231725215911865 0.035682909190654755 0.04336512088775635
v 0.0018335579661652446 -0.015470379963517189 -0.033769961446523666
v 0.0015853639924898744 0.03438609093427658 -0.030484970659017563
v -0.0014923809794709086 -0.005928635131567717 -0.03241521120071411
v -0.0002604289911687374 -0.02971350960433483 -0.015394150279462337
v 0.015456910245120525 0.026074230670928955 0.0598408505320549
v 0.017840679734945297 0.035508688539266586 0.054000068455934525
v 0.014412459917366505 0.0036938779521733522 0.05186675861477852
v 0.008222699165344238 0.01684069074690342 0.053222231566905975
v -0.003961740992963314 -0.024180229753255844 -0.008071660064160824
v -0.005639851093292236 0.0726967379450798 -0.021599529311060905
v -0.0034246440045535564 0.07701939344406128 -0.019429799169301987
v -0.00536841107532382 0.04405343160033226 0.011407850310206413
v -0.005906999111175537 0.038007788360118866 0.02561742067337036
v -0.010436530224978924 -0.0015221829526126385 0.03427176922559738
v -0.019271070137619972 0.00010995200136676431 0.046756498515605927
v -0.018349170684814453 0.03385018929839134 0.04473710060119629
v -0.007199466228485107 0.00023345299996435642 0.043100230395793915
v -0.017127750441432 0.03721427172422409 0.05639814957976341
v -0.012561850249767303 0.02523690089583397 0.05990730971097946
v 0.004297732841223478 -0.030024340376257896 -0.027542170137166977
v -0.004632890224456787 0.00741231394931674 0.00804442074149847
v -0.004188953898847103 -0.029860790818929672 -0.026433110237121582
# Texture coordinates - count=0.
# Normals - count=34.
vn 0.5866618156433105 -0.6451389193534851 -0.48951390385627747
vn 0.8913635015487671 -0.43248680233955383 0.1357446014881134
vn 0.5926637053489685 -0.5302954912185669 0.6062480211257935
vn 0.7581084966659546 0.45082470774650574 0.47119900584220886
vn -0.10798429697751999 0.8634657263755798 0.49271339178085327
vn 0.5959771871566772 0.6356163024902344 -0.49071720242500305
vn 0.43806830048561096 -0.8679993748664856 -0.2338227927684784
vn 0.7105125784873962 0.6985483765602112 -0.08486443012952805
vn -0.04788649082183838 -0.9631639719009399 0.2646172046661377
vn -0.8754866719245911 -0.47656720876693726 0.08004342764616013
vn 0.6427037715911865 -0.7494143843650818 0.15909090638160706
vn 0.9118576049804688 0.31002819538116455 -0.26906970143318176
vn -0.7486960291862488 0.29049649834632874 0.5958740711212158
vn 0.46119630336761475 0.6525549292564392 0.601223886013031
vn -0.05390071123838425 0.9831116795539856 0.1748889982700348
vn -0.009141862392425537 -0.9490416049957275 0.31501829624176025
vn 0.28595930337905884 0.09725766628980637 -0.9532933831214905
vn -0.7433691024780273 0.3522185981273651 -0.5686339139938354
vn 0.27423110604286194 -0.1199159026145935 -0.9541581273078918
vn -0.7665554285049438 -0.12747310101985931 0.6293994784355164
vn -0.10353180021047592 -0.5838894248008728 0.8052045106887817
vn -0.4798249900341034 0.7926087975502014 -0.37621718645095825
vn -0.8059337139129639 0.4745625853538513 0.35392269492149353
vn -0.4269567131996155 -0.8528658151626587 -0.3005462884902954
vn -0.6860715746879578 0.7221215963363647 -0.08857893198728561
vn 0.5657942295074463 -0.6383545994758606 0.5219007134437561
vn -0.7164338231086731 -0.6497474908828735 0.2540687024593353
vn -0.33131009340286255 0.6648805737495422 0.6694532036781311
vn -0.891808271408081 0.36845171451568604 -0.2625286877155304
vn -0.613329291343689 -0.6828550100326538 -0.39690840244293213
vn -0.6743022799491882 -0.525104820728302 0.5192123055458069
vn -0.6313691735267639 0.026610370725393295 -0.7750257849693298
vn 0.1995617002248764 -0.0026668310165405273 0.9798817038536072
vn 0.17654429376125336 0.18015490472316742 0.9676653742790222
# Triangles - count=64.
f 32//1 2//2 1//3
f 2//2 32//1 3//4
f 6//5 3//4 4//6
f 7//7 2//2 5//8
f 7//7 9//9 33//10
f 10//11 7//7 11//12
f 11//12 7//7 5//8
f 12//13 18//14 8//15
f 16//16 32//1 1//3
f 14//17 22//18 4//6
f 32//1 14//17 4//6
f 14//17 32//1 13//19
f 9//9 20//20 12//13
f 10//11 11//12 18//14
f 19//21 20//20 9//9
f 10//11 19//21 9//9
f 22//18 6//5 23//22
f 22//18 24//23 6//5
f 33//10 24//23 22//18
f 33//10 26//24 24//23
f 33//10 9//9 26//24
f 25//25 24//23 26//24
f 25//25 8//15 5//8
f 29//26 26//24 9//9
f 26//24 29//26 27//27
f 30//28 25//25 28//29
f 34//30 33//10 22//18
f 34//30 21//31 33//10
f 21//31 16//16 1//3
f 34//30 22//18 15//32
f 6//5 4//6 23//22
f 5//8 24//23 25//25
f 8//15 31//33 29//26
f 2//2 3//4 5//8
f 1//3 2//2 33//10
f 20//20 19//21 17//34
f 20//20 17//34 12//13
f 17//34 18//14 12//13
f 15//32 14//17 13//19
f 2//2 7//7 33//10
f 8//15 18//14 5//8
f 7//7 10//11 9//9
f 18//14 11//12 5//8
f 23//22 4//6 22//18
f 3//4 32//1 4//6
f 12//13 8//15 9//9
f 10//11 17//34 19//21
f 17//34 10//11 18//14
f 6//5 24//23 3//4
f 21//31 1//3 33//10
f 26//24 28//29 25//25
f 31//33 27//27 29//26
f 14//17 15//32 22//18
f 25//25 30//28 8//15
f 34//30 32//1 16//16
f 16//16 21//31 34//30
f 13//19 34//30 15//32
f 34//30 13//19 32//1
f 8//15 29//26 9//9
f 27//27 30//28 28//29
f 30//28 27//27 31//33
f 31//33 8//15 30//28
f 5//8 3//4 24//23
f 26//24 27//27 28//29
