# Vertices - count=34.
v 0.0016865129582583904 -0.02237856015563011 -0.007154881022870541
v 0.0013825290370732546 -0.021229680627584457 7.473520236089826e-05
v 0.0023908610455691814 0.008431135676801205 0.012178589589893818
v 0.0001935680047608912 0.028093570843338966 0.005841313861310482
v 0.002507925033569336 0.018874039873480797 0.017766529694199562
v 0.00047129098675213754 0.024072110652923584 0.016128240153193474
v 0.0007898120093159378 0.021716589108109474 0.01835012063384056
v -0.00015305100532714278 -0.015386040322482586 0.006906092166900635
v 0.0026138420216739178 -0.008244991302490234 0.009867130778729916
v 0.0024805059656500816 -0.008128643035888672 0.012317709624767303
v 0.005780636798590422 0.005316078197211027 0.019327400252223015
v 0.0027551050297915936 -0.0013527870178222656 0.01633738912642002
v 0.000966790015809238 -0.020357130095362663 -0.012351029552519321
v -0.0002594219986349344 -0.01891927979886532 -0.01344108022749424
v -0.00029217801056802273 0.0006514220149256289 -0.0074439640156924725
v 0.00046595701132901013 -0.023064669221639633 -0.00336438394151628
v -0.0005639059818349779 0.028855200856924057 0.005723117850720882
v -0.0004720530123449862 0.004350124858319759 0.018268100917339325
v 0.005539177916944027 0.0011267659720033407 0.01890891045331955
v 0.005386172793805599 0.008886992000043392 0.02097129076719284
v -0.0007565940031781793 -0.020833009853959084 0.00038538299850188196
v -0.0020481341052800417 0.004998086951673031 0.013091379776597023
v -0.0007988919969648123 0.021964900195598602 0.01743512973189354
v -0.0012977709993720055 -0.009091733954846859 0.008436976931989193
v -0.0023357269819825888 0.01442026998847723 0.020355990156531334
v -0.004114747047424316 0.008272290229797363 0.021556369960308075
v -0.0012269610306248069 -0.02050613984465599 -0.012121549807488918
v -0.0009890029905363917 0.018934130668640137 0.0030634989961981773
v -0.0014447560533881187 -0.02246016077697277 -0.007005034945905209
v -0.004029631149023771 0.001297593000344932 0.019366439431905746
v 0.0003707009891513735 0.020361119881272316 0.003331124084070325
v 0.0005672550178132951 0.012370220385491848 0.01981573924422264
v -0.0015839929692447186 0.01705211028456688 0.01591598056256771
v -0.0021890399511903524 -0.003618061076849699 0.015599420294165611
# Texture coordinates - count=0.
# Normals - count=34.
vn 0.9654871821403503 0.08702336996793747 -0.24548199772834778
vn 0.8068426251411438 0.48818689584732056 -0.332684189081192
vn 0.9378858208656311 0.3073337972164154 0.1609857976436615
vn 0.9960935115814209 -0.056054409593343735 -0.06823264807462692
vn 0.6091213226318359 -0.6833012104034424 0.402580201625824
vn 0.20850880444049835 0.8361430168151855 0.5073353052139282
vn -0.24858589470386505 0.8995934128761292 -0.35907799005508423
vn 0.2529676854610443 0.5608847737312317 0.7882993221282959
vn 0.9996560215950012 0.025579750537872314 0.005787074100226164
vn 0.6158909797668457 -0.39804479479789734 0.6798815131187439
vn 0.6200788021087646 0.0071367621421813965 0.7845072150230408
vn 0.7126892805099487 -0.6660618185997009 -0.22008119523525238
vn 0.6213101148605347 0.27550768852233887 -0.7335320711135864
vn 0.6618549227714539 -0.4692519009113312 -0.5845946073532104
vn -0.6944738030433655 -0.5116494297981262 -0.5058863759040833
vn -0.28970301151275635 -0.6353663802146912 0.7158085107803345
vn -0.6286320090293884 0.29164889454841614 0.7209457755088806
vn -0.33387890458106995 -0.4421862065792084 0.8324639797210693
vn 0.34316569566726685 -0.26977190375328064 0.8997002840042114
vn 0.5477870106697083 -0.5765770077705383 0.606208324432373
vn -0.7549716234207153 0.4531481862068176 0.47399869561195374
vn -0.035706691443920135 0.3411622941493988 -0.9393261075019836
vn -0.09113918989896774 0.024037299677729607 -0.9955481290817261
vn -0.8131201267242432 0.249412402510643 -0.5259556174278259
vn -0.3431555926799774 -0.6676275134086609 0.6606948971748352
vn -0.3270604908466339 -0.5527951717376709 0.7664523124694824
vn -0.5836138129234314 -0.4107429087162018 0.7004894018173218
vn -0.8673442006111145 0.12848550081253052 -0.48083850741386414
vn -0.995109498500824 -0.0982043668627739 -0.010639660060405731
vn -0.9905562996864319 0.12089519947767258 -0.0646742507815361
vn -0.591232419013977 -0.07389097660779953 0.8031094074249268
vn -0.7085406184196472 -0.6816437840461731 -0.18257050216197968
vn -0.632698118686676 -0.6404240131378174 0.43537381291389465
vn 0.049150459468364716 -0.9842872023582458 0.16959629952907562
# Triangles - count=64.
f 3//1 4//2 5//3
f 3//1 9//4 2//5
f 4//2 6//6 5//3
f 6//6 4//2 17//7
f 7//8 5//3 6//6
f 11//9 19//10 9//4
f 11//9 3//1 5//3
f 20//11 5//3 7//8
f 1//12 31//13 3//1
f 13//14 1//12 27//15
f 32//16 20//11 25//17
f 12//18 18//19 10//20
f 19//10 11//9 20//11
f 19//10 32//16 12//18
f 23//21 7//8 6//6
f 27//15 15//22 14//23
f 28//24 31//13 15//22
f 8//25 10//20 34//26
f 30//27 22//28 24//29
f 33//30 22//28 26//31
f 33//30 26//31 25//17
f 29//32 21//33 24//29
f 28//24 17//7 31//13
f 28//24 33//30 17//7
f 16//34 21//33 29//32
f 21//33 16//34 2//5
f 18//19 34//26 10//20
f 18//19 30//27 34//26
f 26//31 32//16 25//17
f 26//31 18//19 32//16
f 1//12 3//1 2//5
f 3//1 31//13 4//2
f 2//5 16//34 1//12
f 2//5 10//20 8//25
f 10//20 2//5 9//4
f 13//14 14//23 15//22
f 3//1 11//9 9//4
f 1//12 16//34 29//32
f 12//18 10//20 19//10
f 19//10 10//20 9//4
f 20//11 11//9 5//3
f 20//11 7//8 25//17
f 24//29 28//24 29//32
f 4//2 31//13 17//7
f 12//18 32//16 18//19
f 19//10 20//11 32//16
f 33//30 23//21 17//7
f 24//29 22//28 33//30
f 33//30 25//17 23//21
f 17//7 23//21 6//6
f 24//29 21//33 8//25
f 21//33 2//5 8//25
f 24//29 8//25 34//26
f 7//8 23//21 25//17
f 22//28 30//27 26//31
f 13//14 27//15 14//23
f 34//26 30//27 24//29
f 15//22 29//32 28//24
f 1//12 29//32 27//15
f 15//22 1//12 13//14
f 18//19 26//31 30//27
f 24//29 33//30 28//24
f 15//22 27//15 29//32
f 15//22 31//13 1//12
