# Vertices - count=50.
v 0.11962970346212387 0.005154191982001066 0.04575502127408981
v 0.07049018144607544 0.00920164491981268 -0.01899218000471592
v 0.039565619081258774 0.018237650394439697 -0.044950298964977264
v -0.03823119029402733 0.012100930325686932 -0.046612728387117386
v -0.1144419014453888 -0.0020053379703313112 0.01928633078932762
v -0.14316120743751526 0.00025720999110490084 0.051632821559906006
v -0.11987060308456421 -0.011827879585325718 0.05314372852444649
v -0.06745076179504395 -0.01759742945432663 -0.03797680139541626
v -0.06191527098417282 -0.003596304915845394 -0.012260009534657001
v -0.028749460354447365 -0.017819760367274284 -0.05725890025496483
v -0.026621580123901367 -0.00682669784873724 -0.038244958966970444
v 0.034164901822805405 -0.013699820265173912 -0.05214029178023338
v 0.006022213958203793 0.000912612013053149 -0.04280029982328415
v 0.09705846756696701 -0.01447147037833929 -0.008985637687146664
v 0.09576057642698288 -0.008964060805737972 0.008275151252746582
v 0.12507489323616028 -0.014279000461101532 0.04062651842832565
v 0.12110500037670135 -0.01065008994191885 0.05320816859602928
v 0.1462358981370926 -0.005075156223028898 0.0641847774386406
v 0.1263570934534073 0.0072598448023200035 0.03453712910413742
v 0.09869349002838135 0.00365769793279469 0.010683650150895119
v 0.09774594753980637 -0.004078148864209652 -0.015355340205132961
v 0.05948369950056076 0.01058852020651102 -0.04676239937543869
v 0.01588105969130993 0.012827630154788494 -0.06258188933134079
v 0.048880208283662796 0.0016221399419009686 -0.0584106408059597
v -0.01069360040128231 0.005803464911878109 -0.06582295149564743
v 0.0025754570960998535 -0.004985212814062834 -0.07159203290939331
v -0.05856585130095482 9.551920084049925e-05 -0.04965448006987572
v -0.1038609966635704 0.004384458065032959 0.025030609220266342
v -0.12824960052967072 0.005714653991162777 0.03777796030044556
v -0.14366230368614197 -0.003822325961664319 0.06867319345474243
v -0.14309880137443542 -0.0081825852394104 0.06922668218612671
v -0.12526290118694305 -0.013562610372900963 0.039133310317993164
v -0.09861230105161667 -0.004242180846631527 0.025603050366044044
v -0.10463850200176239 -0.012352099642157555 0.015542619861662388
v 0.00701665785163641 -0.009057044051587582 -0.04910755157470703
v 0.052453331649303436 -0.0054045310243964195 -0.02772497944533825
v 0.11923710256814957 -0.004379630088806152 0.0547594390809536
v 0.002598762046545744 0.01320016011595726 -0.04591434821486473
v -0.04290639981627464 0.008449493907392025 -0.031733810901641846
v -0.11742209643125534 0.0013388990191742778 0.055947721004486084
v -0.12738379836082458 -0.006936848163604736 0.031952790915966034
v 0.008316278457641602 -0.012876389548182487 -0.06891059130430222
v 0.062109168618917465 -0.008765696547925472 -0.04682952165603638
v 0.1426866054534912 -0.0022659299429506063 0.049349959939718246
v 0.13149380683898926 0.0007924790261313319 0.032240331172943115
v 0.10447630286216736 -0.013399120420217514 0.01395684015005827
v 0.052236851304769516 0.004374383948743343 -0.02534252032637596
v -0.14307959377765656 -0.007230519782751799 0.05335664004087448
v -0.08586066216230392 -0.011467509903013706 -0.02526031993329525
v -0.043606631457805634 -0.009803295135498047 -0.0602525994181633
# Texture coordinates - count=0.
# Normals - count=50.
vn 0.9529806971549988 0.14855240285396576 -0.26412099599838257
vn 0.29122599959373474 0.9378718733787537 -0.18863660097122192
vn 0.7061610221862793 -0.05498844012618065 0.7059130072593689
vn 0.7719361782073975 0.3083812892436981 -0.5558918118476868
vn -0.10449419915676117 0.9526084065437317 0.28568941354751587
vn -0.5268539190292358 0.6967498064041138 0.4867902100086212
vn 0.5271896123886108 0.6556562185287476 -0.540542483329773
vn 0.07649718970060349 0.9949067831039429 -0.06564068049192429
vn 0.06583768129348755 0.746627688407898 -0.6619762778282166
vn 0.7608389258384705 0.06024932116270065 -0.6461380124092102
vn 0.43320250511169434 0.09412378072738647 -0.8963685035705566
vn -0.22083550691604614 0.9408001899719238 -0.25715139508247375
vn -0.19570370018482208 0.566845178604126 -0.8002415895462036
vn -0.014345459640026093 0.010629470460116863 -0.9998406171798706
vn -0.5844693183898926 0.43355271220207214 -0.6858773827552795
vn -0.39129459857940674 -0.22601190209388733 -0.8920803070068359
vn 0.27019640803337097 0.9559029936790466 0.11508099734783173
vn -0.42226070165634155 0.8515468835830688 -0.31074750423431396
vn 0.5234606862068176 0.509267270565033 0.6831073760986328
vn -0.6863040924072266 0.26384279131889343 -0.6777712106704712
vn -0.809394121170044 -0.5322477221488953 -0.24818049371242523
vn -0.5408697724342346 0.445576012134552 0.7133876085281372
vn -0.7763839960098267 0.5974085927009583 -0.20082560181617737
vn 0.4466072916984558 -0.7447333931922913 0.49589741230010986
vn -0.41142579913139343 -0.4941633939743042 0.7658535242080688
vn -0.2595328092575073 -0.9383112788200378 -0.22850529849529266
vn -0.1704656034708023 -0.9834539294242859 -0.06131773814558983
vn 0.7998964190483093 -0.22377459704875946 0.5568580031394958
vn 0.6333965063095093 -0.05871950834989548 0.771596372127533
vn -0.5008413195610046 -0.45208609104156494 0.7380896210670471
vn -0.1255244016647339 -0.15993569791316986 0.9791139960289001
vn -0.036407049745321274 -0.656533420085907 0.7534179091453552
vn -0.6996973752975464 -0.49742090702056885 0.5128313899040222
vn -0.40235811471939087 -0.718487024307251 0.5673487186431885
vn -0.6102681159973145 0.15067359805107117 0.777734100818634
vn -0.445269912481308 0.013048229739069939 0.8953014016151428
vn -0.04343247041106224 0.1501730978488922 0.987705409526825
vn 0.37253209948539734 0.6886096000671387 0.6221228241920471
vn 0.3501664996147156 -0.4993829131126404 0.7924646735191345
vn -0.7801380157470703 -0.28154370188713074 -0.5586752891540527
vn -0.3517886996269226 -0.8462973833084106 -0.4000318944454193
vn -0.013496870175004005 -0.9707093238830566 -0.23987750709056854
vn 0.13633190095424652 -0.6687070727348328 -0.7309201955795288
vn 0.06636536121368408 -0.9975273013114929 -0.023133989423513412
vn 0.5044589042663574 -0.5375239849090576 -0.6757137775421143
vn 0.35455000400543213 -0.9028455018997192 -0.24323749542236328
vn 0.247251495718956 -0.9676895141601562 -0.04943602904677391
vn -0.35391759872436523 0.8396002054214478 0.41208478808403015
vn -0.4015178084373474 -0.8935161828994751 0.20102860033512115
vn -0.6455640196800232 -0.32072359323501587 -0.6930971145629883
# Triangles - count=96.
f 44//1 19//2 18//3
f 19//2 44//1 45//4
f 45//4 2//5 20//6
f 22//7 3//8 2//5
f 22//7 23//9 3//8
f 22//7 21//10 24//11
f 23//9 4//12 3//8
f 23//9 25//13 4//12
f 23//9 24//11 26//14
f 27//15 25//13 50//16
f 28//17 29//18 40//19
f 28//17 5//20 29//18
f 48//21 30//22 6//23
f 7//24 31//25 32//26
f 34//27 33//28 7//24
f 34//27 9//29 33//28
f 27//15 28//17 4//12
f 36//30 13//31 35//32
f 15//33 17//34 37//35
f 47//36 13//31 36//30
f 47//36 20//6 2//5
f 20//6 47//36 15//33
f 38//37 4//12 39//38
f 38//37 3//8 4//12
f 9//29 11//39 39//38
f 33//28 28//17 40//19
f 40//19 30//22 31//25
f 48//21 32//26 31//25
f 49//40 8//41 34//27
f 5//20 49//40 34//27
f 50//16 10//42 8//41
f 10//42 42//43 12//44
f 42//43 26//14 24//11
f 42//43 50//16 26//14
f 50//16 42//43 10//42
f 12//44 43//45 14//46
f 43//45 12//44 42//43
f 14//46 44//1 16//47
f 14//46 21//10 44//1
f 44//1 21//10 45//4
f 18//3 19//2 1//48
f 19//2 20//6 1//48
f 19//2 45//4 20//6
f 45//4 22//7 2//5
f 22//7 45//4 21//10
f 23//9 22//7 24//11
f 25//13 26//14 50//16
f 25//13 23//9 26//14
f 39//38 4//12 28//17
f 27//15 4//12 25//13
f 40//19 6//23 30//22
f 11//39 38//37 39//38
f 30//22 48//21 31//25
f 34//27 7//24 32//26
f 34//27 11//39 9//29
f 10//42 34//27 8//41
f 11//39 34//27 10//42
f 35//32 13//31 11//39
f 35//32 10//42 12//44
f 35//32 11//39 10//42
f 12//44 36//30 35//32
f 36//30 12//44 15//33
f 15//33 12//44 14//46
f 17//34 46//49 16//47
f 15//33 46//49 17//34
f 46//49 14//46 16//47
f 14//46 46//49 15//33
f 17//34 16//47 18//3
f 1//48 37//35 18//3
f 37//35 17//34 18//3
f 20//6 37//35 1//48
f 37//35 20//6 15//33
f 47//36 38//37 13//31
f 38//37 2//5 3//8
f 38//37 47//36 2//5
f 47//36 36//30 15//33
f 9//29 28//17 33//28
f 33//28 40//19 7//24
f 32//26 5//20 34//27
f 7//24 40//19 31//25
f 48//21 41//50 32//26
f 41//50 29//18 5//20
f 41//50 6//23 29//18
f 6//23 41//50 48//21
f 49//40 5//20 27//15
f 27//15 50//16 49//40
f 49//40 50//16 8//41
f 43//45 24//11 21//10
f 43//45 42//43 24//11
f 21//10 14//46 43//45
f 16//47 44//1 18//3
f 27//15 5//20 28//17
f 40//19 29//18 6//23
f 11//39 13//31 38//37
f 9//29 39//38 28//17
f 32//26 41//50 5//20
