# Vertices - count=34.
v 0.00966578722000122 -0.00675201416015625 -0.007267713081091642
v 0.009998798370361328 0.02666139043867588 -0.07456915825605392
v 0.011583260260522366 0.06511007994413376 0.02331376075744629
v 0.01476030983030796 0.03045915998518467 0.04869173839688301
v 0.019190490245819092 0.08432763069868088 0.05410562828183174
v 9.63058992056176e-05 0.08776485174894333 0.04950952157378197
v 0.0007199510000646114 0.04182535037398338 0.05279159173369408
v 0.038422878831624985 0.04926048964262009 0.08579211682081223
v 0.037081360816955566 0.09932655096054077 0.08312535285949707
v 0.015601090155541897 0.09864579886198044 0.08344142884016037
v 0.00781923532485962 -0.03560053929686546 -0.09242080897092819
v -0.00623929500579834 -0.06940174102783203 -0.059645891189575195
v 0.010883679613471031 -0.08041565865278244 -0.07977592200040817
v 0.00023191999935079366 0.047182321548461914 -0.04360216110944748
v 0.03223979100584984 0.0506509505212307 0.09785532206296921
v 0.033800479024648666 0.09692995995283127 0.10403449833393097
v 0.015307419933378696 0.07557439059019089 0.09826099127531052
v -0.010334610007703304 -0.008178710006177425 -0.010686569847166538
v -0.015160320326685905 0.03228573873639107 0.049760401248931885
v -0.011544880457222462 0.06414561718702316 0.022336240857839584
v -0.009837268851697445 0.02391158975660801 -0.07637529820203781
v -0.01757037080824375 0.0817684531211853 0.05089014023542404
v -0.03663444146513939 0.049488961696624756 0.08174573630094528
v -0.03615688905119896 0.10146769881248474 0.08144968003034592
v -0.008205533027648926 -0.03163617104291916 -0.09180574864149094
v -0.011233150027692318 -0.07977831363677979 -0.07899253815412521
v -0.035469651222229004 0.05153828114271164 0.09618978947401047
v -0.03030836023390293 0.07038521021604538 0.10724460333585739
v -0.03414975851774216 0.10331639647483826 0.09892541170120239
v -0.021402709186077118 0.10533329844474792 0.07751070708036423
v -0.016154639422893524 0.05411195009946823 0.08581464737653732
v -0.01475535985082388 0.0857323408126831 0.09706591814756393
v 0.026917269453406334 0.10398759692907333 0.07827936857938766
v 0.007358551025390625 -0.08151286095380783 -0.07302719354629517
# Texture coordinates - count=0.
# Normals - count=34.
vn -0.02080290950834751 0.9154040217399597 -0.40199849009513855
vn 0.7133648991584778 0.5706439018249512 -0.40678760409355164
vn 0.6258584260940552 0.485324501991272 -0.6105418801307678
vn 0.197393998503685 -0.5925167798995972 0.7809990048408508
vn 0.35337260365486145 0.5539398789405823 0.7538424730300903
vn -0.6837890148162842 -0.030953820794820786 0.7290229797363281
vn 0.6149060726165771 -0.711260974407196 0.34058520197868347
vn 0.9531381130218506 -0.15478120744228363 -0.2599433958530426
vn -0.032351668924093246 0.9327930212020874 -0.35895779728889465
vn 0.07877510040998459 0.9823729991912842 -0.16952219605445862
vn 0.8877937197685242 -0.45982080698013306 0.019679000601172447
vn -0.6634917259216309 0.6698809862136841 0.3332239091396332
vn 0.3555960953235626 -0.8711752891540527 0.3385336995124817
vn -0.6478670835494995 -0.6945827007293701 -0.31276699900627136
vn 0.6307733058929443 -0.6270570755004883 -0.457082599401474
vn -0.631909191608429 0.4296655058860779 -0.6450414061546326
vn 0.7149354219436646 -0.532932698726654 0.45260369777679443
vn 0.8441103100776672 0.5099939107894897 -0.1654811054468155
vn -0.7309439182281494 0.568317174911499 -0.37780511379241943
vn -0.37942078709602356 0.7152972221374512 0.5868474245071411
vn -0.1888727992773056 -0.21087749302387238 0.9590921998023987
vn 0.7632392048835754 0.19465790688991547 0.616096019744873
vn -0.8786472082138062 -0.4696229100227356 -0.08621721714735031
vn -0.9050490260124207 0.15028269588947296 -0.39787110686302185
vn -0.6372967958450317 -0.7015277743339539 0.31892260909080505
vn -0.7807914018630981 0.5724778175354004 -0.25026780366897583
vn 0.22043900191783905 0.9708442091941833 -0.09417145699262619
vn -0.7443549036979675 -0.49315738677978516 0.4502575099468231
vn -0.5946698784828186 0.05033617839217186 -0.8023927211761475
vn -0.3921501934528351 -0.6495918035507202 0.651343822479248
vn -0.47331780195236206 -0.577301025390625 0.6653525233268738
vn 0.6799607872962952 -0.48106271028518677 0.553382396697998
vn 0.5644229054450989 -0.014628290198743343 -0.8253561854362488
vn -0.05297946184873581 -0.5560544729232788 0.8294556140899658
# Triangles - count=64.
f 14//1 3//2 2//3
f 15//4 16//5 17//6
f 4//7 3//2 5//8
f 3//2 6//9 33//10
f 8//11 4//7 5//8
f 15//4 4//7 8//11
f 10//12 33//10 6//9
f 34//13 26//14 13//15
f 2//3 21//16 14//1
f 1//17 34//13 13//15
f 2//3 1//17 13//15
f 8//11 9//18 16//5
f 33//10 10//12 16//5
f 17//6 10//12 6//9
f 20//19 14//1 21//16
f 29//20 28//21 32//22
f 20//19 6//9 3//2
f 23//23 22//24 19//25
f 22//24 23//23 24//26
f 30//27 22//24 24//26
f 26//14 18//28 20//19
f 26//14 21//16 25//29
f 12//30 18//28 26//14
f 12//30 1//17 18//28
f 27//31 24//26 23//23
f 31//32 6//9 32//22
f 29//20 24//26 27//31
f 29//20 27//31 28//21
f 25//29 2//3 11//33
f 4//7 1//17 3//2
f 20//19 3//2 14//1
f 17//6 16//5 10//12
f 19//25 1//17 4//7
f 5//8 3//2 33//10
f 9//18 8//11 5//8
f 4//7 15//4 7//34
f 33//10 9//18 5//8
f 2//3 13//15 11//33
f 12//30 34//13 1//17
f 6//9 7//34 17//6
f 15//4 8//11 16//5
f 17//6 7//34 15//4
f 33//10 16//5 9//18
f 20//19 18//28 19//25
f 11//33 26//14 25//29
f 28//21 31//32 32//22
f 28//21 27//31 31//32
f 29//20 32//22 30//27
f 19//25 4//7 7//34
f 19//25 22//24 20//19
f 20//19 30//27 6//9
f 30//27 20//19 22//24
f 31//32 19//25 7//34
f 23//23 19//25 27//31
f 26//14 34//13 12//30
f 21//16 26//14 20//19
f 32//22 6//9 30//27
f 31//32 7//34 6//9
f 29//20 30//27 24//26
f 2//3 3//2 1//17
f 25//29 21//16 2//3
f 19//25 18//28 1//17
f 11//33 13//15 26//14
f 31//32 27//31 19//25
