# Vertices - count=34.
v 0.0012364380527287722 -0.015760889276862144 -0.0069487690925598145
v 0.001013576053082943 -0.01548301987349987 -0.0015891189686954021
v 0.0017527929740026593 0.00520366383716464 0.00953143835067749
v 0.00014191199443303049 0.02002899907529354 0.006433606147766113
v 0.0018386240117251873 0.01238441001623869 0.014413770288228989
v 0.0003455010009929538 0.016300790011882782 0.013621860183775425
v 0.000579014013055712 0.014411560259759426 0.015059290453791618
v -0.00011222399916732684 -0.011751710437238216 0.0038435449823737144
v 0.0019162889802828431 -0.00677484180778265 0.006555199157446623
v 0.001818537013605237 -0.0068797459825873375 0.008350729010999203
v 0.004237948916852474 0.0023792379070073366 0.014502040110528469
v 0.002019821899011731 -0.0022510879207402468 0.011805829592049122
v 0.0007088049896992743 -0.013884900137782097 -0.010580480098724365
v -0.00019017499289475381 -0.012752230279147625 -0.011263839900493622
v -0.00021419300173874944 0.0010511870495975018 -0.005376516841351986
v 0.0003416090039536357 -0.01655453070998192 -0.00423848582431674
v -0.00041341999894939363 0.020593460649251938 0.006406425964087248
v -0.0003461150045040995 0.0017570250201970339 0.013654939830303192
v 0.004060924053192139 -0.0006424980238080025 0.013872560113668442
v 0.003948806785047054 0.0048552751541137695 0.015976959839463234
v -0.0005546970060095191 -0.015217900276184082 -0.0013319839490577579
v -0.001501559978350997 0.0026302330661565065 0.00993108656257391
v -0.0005857219803147018 0.014663389883935452 0.0144114401191473
v -0.0009514730190858245 -0.007281422149389982 0.005446969997137785
v -0.0017124409787356853 0.00893694069236517 0.015956750139594078
v -0.0030167100485414267 0.004361866973340511 0.016355929896235466
v -0.0008995240204967558 -0.014011260122060776 -0.010424730367958546
v -0.0007250739727169275 0.013566549867391586 0.0036993620451539755
v -0.0010591739555820823 -0.015831999480724335 -0.006845891010016203
v -0.0029543039854615927 -0.0005533900111913681 0.014219339936971664
v 0.00027177701122127473 0.014586149714887142 0.00400495482608676
v 0.000415841001085937 0.007484197150915861 0.015404160134494305
v -0.00116127694491297 0.011199410073459148 0.012923589907586575
v -0.001604913966730237 -0.003845453029498458 0.011092480272054672
# Texture coordinates - count=0.
# Normals - count=34.
vn 0.9654914736747742 0.1125376969575882 -0.23486459255218506
vn 0.8068423867225647 0.5205919742584229 -0.27926599979400635
vn 0.937871515750885 0.28866419196128845 0.1925359070301056
vn 0.9960936903953552 -0.04853612184524536 -0.073768250644207
vn 0.6091517806053162 -0.7219557166099548 0.328198105096817
vn 0.20850810408592224 0.7778903245925903 0.5927994251251221
vn -0.24865880608558655 0.9324687719345093 -0.26205140352249146
vn 0.2529667913913727 0.4745008051395416 0.8431233167648315
vn 0.999656081199646 0.024824079126119614 0.008459806442260742
vn 0.6158891916275024 -0.4676176905632019 0.6340458989143372
vn 0.6200773119926453 -0.07575035095214844 0.7808752059936523
vn 0.7134981751441956 -0.6386644840240479 -0.28814610838890076
vn 0.6213117837905884 0.35143110156059265 -0.7003340721130371
vn -0.024316130205988884 0.461557000875473 -0.8867772817611694
vn 0.6618573069572449 -0.40489378571510315 -0.6308770775794983
vn -0.6944357752799988 -0.45541679859161377 -0.5570946931838989
vn -0.2897101938724518 -0.707409679889679 0.6447010040283203
vn -0.6286334991455078 0.21388429403305054 0.7477121949195862
vn -0.33388158679008484 -0.5276259183883667 0.7811108231544495
vn 0.34316450357437134 -0.3632754981517792 0.8661807775497437
vn 0.5477849245071411 -0.6373717188835144 0.5419309735298157
vn -0.7549718022346497 0.4005587100982666 0.5192016959190369
vn -0.0911400318145752 0.12903539836406708 -0.9874429106712341
vn -0.8131182193756104 0.3035616874694824 -0.4966782033443451
vn -0.34315720200538635 -0.7336663007736206 0.5864955186843872
vn -0.3270629048347473 -0.6306446194648743 0.7037879228591919
vn -0.5836153030395508 -0.48242080211639404 0.6531949043273926
vn -0.8673686981201172 0.17853869497776031 -0.4645377993583679
vn -0.995109498500824 -0.0965309664607048 -0.020953169092535973
vn -0.990556001663208 0.12704989314079285 -0.05154800042510033
vn -0.5912336707115173 -0.15828900039196014 0.7908143997192383
vn -0.7085459232330322 -0.660574197769165 -0.24820250272750854
vn -0.6326990723609924 -0.682820200920105 0.3653061091899872
vn 0.049158331006765366 -0.99669349193573 0.0646970197558403
# Triangles - count=64.
f 3//1 4//2 5//3
f 3//1 9//4 2//5
f 4//2 6//6 5//3
f 6//6 4//2 17//7
f 7//8 5//3 6//6
f 11//9 19//10 9//4
f 11//9 3//1 5//3
f 20//11 5//3 7//8
f 1//12 31//13 3//1
f 1//12 15//14 31//13
f 13//15 1//12 27//16
f 32//17 20//11 25//18
f 12//19 18//20 10//21
f 19//10 11//9 20//11
f 19//10 32//17 12//19
f 23//22 7//8 6//6
f 27//16 15//14 14//23
f 28//24 31//13 15//14
f 8//25 10//21 34//26
f 30//27 22//28 24//29
f 33//30 22//28 26//31
f 33//30 26//31 25//18
f 29//32 21//33 24//29
f 29//32 15//14 27//16
f 28//24 17//7 31//13
f 28//24 33//30 17//7
f 16//34 21//33 29//32
f 21//33 16//34 2//5
f 18//20 34//26 10//21
f 18//20 30//27 34//26
f 26//31 32//17 25//18
f 26//31 18//20 32//17
f 1//12 3//1 2//5
f 3//1 31//13 4//2
f 2//5 16//34 1//12
f 2//5 10//21 8//25
f 10//21 2//5 9//4
f 13//15 14//23 15//14
f 3//1 11//9 9//4
f 1//12 16//34 29//32
f 12//19 10//21 19//10
f 19//10 10//21 9//4
f 20//11 11//9 5//3
f 20//11 7//8 25//18
f 1//12 13//15 15//14
f 4//2 31//13 17//7
f 12//19 32//17 18//20
f 19//10 20//11 32//17
f 33//30 23//22 17//7
f 24//29 22//28 33//30
f 33//30 25//18 23//22
f 17//7 23//22 6//6
f 24//29 21//33 8//25
f 21//33 2//5 8//25
f 24//29 8//25 34//26
f 7//8 23//22 25//18
f 22//28 30//27 26//31
f 13//15 27//16 14//23
f 34//26 30//27 24//29
f 29//32 28//24 15//14
f 1//12 29//32 27//16
f 24//29 28//24 29//32
f 18//20 26//31 30//27
f 24//29 33//30 28//24
