# Vertices - count=34.
v 0.015868840739130974 0.0006602350040338933 0.06771212071180344
v 0.02091890014708042 0.05783820152282715 0.12230180203914642
v 0.01708601973950863 0.014736710116267204 0.024706780910491943
v 0.012311270460486412 0.06107835844159126 0.05570482835173607
v 0.02093880996108055 0.09257680177688599 0.10666009783744812
v -0.008408725261688232 -0.021921750158071518 0.05114281177520752
v 0.000593887991271913 0.10223499685525894 0.10973820090293884
v 0.006040989886969328 0.05519222840666771 0.1231708973646164
v 0.05341999977827072 0.08073747158050537 0.1598079949617386
v 0.052891310304403305 0.12394580245018005 0.1446201056241989
v 0.022296659648418427 0.08488904684782028 0.16304220259189606
v 0.00860357191413641 -0.009207128547132015 -0.011175209656357765
v 0.013478689827024937 -0.07364130020141602 0.0039986371994018555
v 0.016398420557379723 -0.04805678129196167 -0.027863679453730583
v 0.012247740291059017 0.03542435169219971 0.03594154119491577
v -0.0013036129530519247 0.07755302637815475 0.12688760459423065
v 0.050166718661785126 0.08630341291427612 0.17792880535125732
v 0.04977482184767723 0.12737169861793518 0.16850000619888306
v 0.022749660536646843 0.11403679847717285 0.1666633039712906
v -0.01598035916686058 0.017902789637446404 0.07466983050107956
v -0.020997820422053337 0.05673002824187279 0.12247859686613083
v -0.016357360407710075 0.034266941249370575 0.027906769886612892
v -0.014405660331249237 0.052880700677633286 0.04399782046675682
v -0.018636580556631088 0.09075534343719482 0.10194540023803711
v -0.056299030780792236 0.0814218521118164 0.16792500019073486
v -0.05496501177549362 0.1258690059185028 0.1471439003944397
v -0.026235399767756462 0.07913409918546677 0.15915629267692566
v -0.012418029829859734 -0.03237009048461914 -0.023688970133662224
v -0.015954310074448586 -0.073679618537426 0.008708775043487549
v -0.04292147979140282 0.11584290117025375 0.18102629482746124
v -0.02267264947295189 0.1189190000295639 0.14930540323257446
v -0.022147949784994125 0.10529109835624695 0.16960689425468445
v -0.008029459975659847 -0.06057751178741455 -0.019261829555034637
v -0.0113868098706007 0.0001808359957067296 -0.01022243034094572
# Texture coordinates - count=0.
# Normals - count=34.
vn 0.648927628993988 -0.498751699924469 0.574577808380127
vn 0.8557084798812866 0.34188151359558105 -0.3884328007698059
vn 0.8080877065658569 -0.5878539085388184 0.037713758647441864
vn 0.40205588936805725 0.5802549719810486 -0.7082762122154236
vn 0.46872028708457947 0.6463394165039062 -0.6021186113357544
vn -0.7997574210166931 -0.4091230034828186 0.43932509422302246
vn -0.2027754932641983 -0.5933170914649963 0.7790102958679199
vn -0.018080350011587143 -0.721799373626709 0.6918662190437317
vn 0.735040009021759 -0.6499969959259033 0.19292549788951874
vn 0.4317440092563629 -0.3578157126903534 0.8279886245727539
vn 0.44151461124420166 0.7307031750679016 0.5207087993621826
vn -0.669273316860199 0.47799479961395264 0.568853497505188
vn -0.049182649701833725 0.9470250010490417 -0.31737178564071655
vn 0.5881987810134888 -0.18950900435447693 -0.7861989140510559
vn 0.5072219967842102 0.5029314756393433 -0.6998469829559326
vn 0.6063134074211121 0.7186335921287537 -0.34051400423049927
vn -0.6322208046913147 -0.3343729078769684 0.6989219188690186
vn 0.8557295799255371 -0.5173115730285645 0.010746950283646584
vn -0.6561756134033203 0.490200400352478 -0.5737050175666809
vn 0.5517666935920715 -0.8282505869865417 0.097747802734375
vn -0.6331778168678284 0.12279810011386871 -0.7642033100128174
vn -0.6640657782554626 -0.7155972123146057 0.21665030717849731
vn -0.8999871015548706 -0.379604309797287 -0.21429869532585144
vn -0.4482336938381195 0.6561048030853271 -0.6071351766586304
vn -0.1447422057390213 0.4083256125450134 0.9012879729270935
vn 0.5839294195175171 0.8032631874084473 0.11745090037584305
vn -0.6638569235801697 0.7028501033782959 -0.2555302083492279
vn -0.44008439779281616 -0.55638587474823 -0.7048122882843018
vn -0.5831068754196167 -0.786695122718811 0.2027249038219452
vn 0.3903804123401642 -0.5734173059463501 0.720274806022644
vn -0.7350782752037048 -0.5213484168052673 0.43342331051826477
vn -0.44106191396713257 0.5606852173805237 -0.7007827758789062
vn 0.14906950294971466 0.162750706076622 0.9753413200378418
vn 0.7043213844299316 0.08962023258209229 0.7042014002799988
# Triangles - count=64.
f 1//1 3//2 5//3
f 15//4 4//5 3//2
f 1//1 20//6 6//7
f 8//8 1//1 2//9
f 17//10 18//11 19//12
f 18//11 7//13 19//12
f 14//14 12//15 3//2
f 4//5 7//13 10//16
f 17//10 11//17 8//8
f 5//3 10//16 9//18
f 9//18 8//8 2//9
f 1//1 14//14 3//2
f 15//4 3//2 22//19
f 1//1 6//7 13//20
f 14//14 28//21 12//15
f 17//10 9//18 18//11
f 18//11 9//18 10//16
f 10//16 7//13 18//11
f 21//22 24//23 20//6
f 23//24 15//4 22//19
f 20//6 8//8 21//22
f 30//25 31//26 26//27
f 33//28 13//20 29//29
f 27//30 21//22 8//8
f 21//22 27//30 25//31
f 26//27 24//23 21//22
f 26//27 31//26 7//13
f 22//19 34//32 28//21
f 6//7 20//6 29//29
f 28//21 14//14 33//28
f 16//33 27//30 8//8
f 2//9 1//1 5//3
f 5//3 3//2 4//5
f 23//24 4//5 15//4
f 1//1 8//8 20//6
f 11//17 17//10 19//12
f 5//3 4//5 10//16
f 14//14 1//1 13//20
f 9//18 2//9 5//3
f 33//28 14//14 13//20
f 32//34 25//31 27//30
f 7//13 16//33 11//17
f 16//33 8//8 11//17
f 11//17 19//12 7//13
f 20//6 24//23 22//19
f 24//23 23//24 22//19
f 24//23 4//5 23//24
f 34//32 3//2 12//15
f 31//26 30//25 32//34
f 28//21 34//32 12//15
f 29//29 13//20 6//7
f 4//5 26//27 7//13
f 26//27 4//5 24//23
f 25//31 26//27 21//22
f 33//28 29//29 28//21
f 22//19 29//29 20//6
f 29//29 22//19 28//21
f 16//33 7//13 31//26
f 16//33 32//34 27//30
f 30//25 26//27 25//31
f 31//26 32//34 16//33
f 9//18 17//10 8//8
f 32//34 30//25 25//31
f 34//32 22//19 3//2
