# Vertices - count=34.
v 0.003921926021575928 -0.026793060824275017 -0.006908475887030363
v 0.0052560558542609215 0.009135483764111996 0.008086799643933773
v 0.0070687527768313885 0.0549505315721035 0.0059623708948493
v 0.004463374149054289 0.0839570090174675 -0.026042640209197998
v 0.007061122916638851 0.043140288442373276 0.02655768021941185
v -0.0011636009439826012 0.0858798623085022 -0.01424121018499136
v 0.01151025015860796 8.139410056173801e-05 0.03725171089172363
v -0.002395390998572111 0.04603463038802147 0.0338057205080986
v 0.0004389089881442487 0.0032377829775214195 0.0351179800927639
v 0.02040915936231613 0.0010689490009099245 0.051000408828258514
v 0.020427219569683075 0.037589430809020996 0.047330550849437714
v 0.006885886192321777 0.04152369126677513 0.046113550662994385
v 0.002026081085205078 -0.018739400431513786 -0.03651642054319382
v 0.0017517800442874432 0.03645765036344528 -0.03534394130110741
v -0.0016490810085088015 -0.00813978910446167 -0.03549056872725487
v -0.0002877569932024926 -0.033557649701833725 -0.015530879609286785
v 0.017079409211874008 0.031727731227874756 0.06477367132902145
v 0.01971345953643322 0.04185479134321213 0.057861801236867905
v 0.015925399959087372 0.006630181800574064 0.05707269161939621
v 0.00908583402633667 0.0212093498557806 0.057921938598155975
v -0.004377603065222502 -0.027089230716228485 -0.00772011186927557
v -0.006231843959540129 0.07918518036603928 -0.02742099016904831
v -0.0037841200828552246 0.0840635821223259 -0.02523856982588768
v -0.005931912921369076 0.049190931022167206 0.010424789972603321
v -0.0065271249040961266 0.04321663826704025 0.026407890021800995
v -0.011532059870660305 6.354100150929298e-06 0.0379066988825798
v -0.02129404991865158 0.002422451041638851 0.05160795897245407
v -0.020275350660085678 0.03956811875104904 0.04771827906370163
v -0.00795525312423706 0.0023788209073245525 0.04756581038236618
v -0.018925659358501434 0.04385560005903244 0.0604250393807888
v -0.013880549930036068 0.03080677054822445 0.06488823145627975
v 0.004748879931867123 -0.03449869155883789 -0.028925469145178795
v -0.005119264125823975 0.008578181266784668 0.00851529836654663
v -0.004628716967999935 -0.034263551235198975 -0.027709299698472023
# Texture coordinates - count=0.
# Normals - count=34.
vn 0.5866621136665344 -0.6663016080856323 -0.46029341220855713
vn 0.8913633227348328 -0.4260118007659912 0.15487270057201385
vn 0.5926634073257446 -0.5027672052383423 0.6292657256126404
vn 0.7581086158752441 0.471364289522171 0.45065200328826904
vn -0.10798300057649612 0.8845542073249817 0.4537661075592041
vn 0.5959770083427429 0.6131287217140198 -0.5185406804084778
vn 0.4380458891391754 -0.8775506019592285 -0.19498929381370544
vn 0.7105128169059753 0.6940752267837524 -0.1158934012055397
vn -0.047886550426483154 -0.9504222273826599 0.3072533905506134
vn -0.8754866719245911 -0.4725291132926941 0.10119009763002396
vn 0.6427035927772522 -0.7415850162506104 0.19231179356575012
vn 0.9118574261665344 0.2977364957332611 -0.28261131048202515
vn -0.7486972808837891 0.3167465925216675 0.582343578338623
vn 0.4611966013908386 0.6786853075027466 0.5715628862380981
vn -0.053899940103292465 0.9899256229400635 0.13092820346355438
vn -0.009141086600720882 -0.9340693950653076 0.35697460174560547
vn 0.28595900535583496 0.05470174178481102 -0.9566792249679565
vn -0.7433692216873169 0.32654258608818054 -0.5837569832801819
vn 0.2742309868335724 -0.16229459643363953 -0.9478701949119568
vn -0.7665556073188782 -0.09931302070617676 0.6344521045684814
vn -0.10353200137615204 -0.5474467277526855 0.8304116129875183
vn -0.4798259139060974 0.7750654816627502 -0.4111455976963043
vn -0.8059331178665161 0.4898557960987091 0.33243510127067566
vn -0.4269568920135498 -0.8654053807258606 -0.2622619867324829
vn -0.6860712766647339 0.7174599766731262 -0.12065420299768448
vn 0.5657938718795776 -0.6144765019416809 0.5498145818710327
vn -0.7164341807365417 -0.6377859711647034 0.28275638818740845
vn -0.33131030201911926 0.6940379738807678 0.6391749978065491
vn -0.891808271408081 0.3563928008079529 -0.2786793112754822
vn -0.6133289933204651 -0.6998558044433594 -0.36610040068626404
vn -0.6743022799491882 -0.5014582872390747 0.5420848727226257
vn -0.6313692927360535 -0.00793534517288208 -0.7754417061805725
vn 0.1995609998703003 0.04097979888319969 0.9790282249450684
vn 0.17654359340667725 0.22307559847831726 0.9586812853813171
# Triangles - count=64.
f 32//1 2//2 1//3
f 2//2 32//1 3//4
f 6//5 3//4 4//6
f 7//7 2//2 5//8
f 7//7 9//9 33//10
f 10//11 7//7 11//12
f 11//12 7//7 5//8
f 12//13 18//14 8//15
f 16//16 32//1 1//3
f 14//17 22//18 4//6
f 32//1 14//17 4//6
f 14//17 32//1 13//19
f 9//9 20//20 12//13
f 10//11 11//12 18//14
f 19//21 20//20 9//9
f 10//11 19//21 9//9
f 22//18 6//5 23//22
f 22//18 24//23 6//5
f 33//10 24//23 22//18
f 33//10 26//24 24//23
f 33//10 9//9 26//24
f 25//25 24//23 26//24
f 25//25 8//15 5//8
f 29//26 26//24 9//9
f 26//24 29//26 27//27
f 30//28 25//25 28//29
f 34//30 33//10 22//18
f 34//30 21//31 33//10
f 21//31 16//16 1//3
f 34//30 22//18 15//32
f 6//5 4//6 23//22
f 5//8 24//23 25//25
f 8//15 31//33 29//26
f 2//2 3//4 5//8
f 1//3 2//2 33//10
f 20//20 19//21 17//34
f 20//20 17//34 12//13
f 17//34 18//14 12//13
f 15//32 14//17 13//19
f 2//2 7//7 33//10
f 8//15 18//14 5//8
f 7//7 10//11 9//9
f 18//14 11//12 5//8
f 23//22 4//6 22//18
f 3//4 32//1 4//6
f 12//13 8//15 9//9
f 10//11 17//34 19//21
f 17//34 10//11 18//14
f 6//5 24//23 3//4
f 21//31 1//3 33//10
f 26//24 28//29 25//25
f 31//33 27//27 29//26
f 14//17 15//32 22//18
f 25//25 30//28 8//15
f 34//30 32//1 16//16
f 16//16 21//31 34//30
f 13//19 34//30 15//32
f 34//30 13//19 32//1
f 8//15 29//26 9//9
f 27//27 30//28 28//29
f 30//28 27//27 31//33
f 31//33 8//15 30//28
f 5//8 3//4 24//23
f 26//24 27//27 28//29
