# Vertices - count=17.
v -0.010414649732410908 0.002180397044867277 -0.034530218690633774
v -0.02544534020125866 -0.008525729179382324 0.041926320642232895
v 0.0073718419298529625 -0.008917272090911865 -0.025234930217266083
v 0.013141090050339699 -0.019991930574178696 0.09475243091583252
v 0.002190828090533614 0.03852127864956856 -0.023873500525951385
v -0.009714782238006592 0.015418999828398228 0.04767297953367233
v 0.015511149540543556 0.037329431623220444 -0.03563189134001732
v -8.127280307235196e-05 -0.027999399229884148 -0.10707339644432068
v 0.014341229572892189 -0.01650720089673996 -0.10638660192489624
v 0.006620049010962248 -0.004403769038617611 -0.11437349766492844
v -0.0031187529675662518 -0.04331135004758835 -0.13100160658359528
v -0.004964590072631836 -0.03567427024245262 0.08111858367919922
v -0.019192030653357506 -0.030415350571274757 0.07290530204772949
v 0.008456586860120296 -0.006618558894842863 0.10186050087213516
v -0.011350089684128761 -0.019047429785132408 0.09889911860227585
v 0.01759505085647106 0.014322809875011444 -0.018800370395183563
v -0.008892357349395752 -0.0018888709601014853 -0.09785311669111252
# Texture coordinates - count=0.
# Normals - count=17.
vn -0.999887228012085 -0.0003906720085069537 -0.015021559782326221
vn -0.9716354012489319 -0.229803204536438 -0.055815450847148895
vn -0.770031213760376 -0.6316313743591309 0.0899653434753418
vn 0.40250781178474426 -0.9116767048835754 -0.08266382664442062
vn -0.4285576045513153 0.8526206016540527 0.29895898699760437
vn -0.3606472909450531 0.9319376945495605 0.037759121507406235
vn -0.5577700734138489 -0.1279550939798355 0.8200733065605164
vn 0.7643563747406006 -0.42703670263290405 0.4831137955188751
vn 0.3434200882911682 0.4254310131072998 0.8373000025749207
vn -0.20729650557041168 -0.8682602047920227 0.4507245123386383
vn 0.5595006942749023 0.8074929118156433 -0.18685349822044373
vn -0.8731182813644409 0.3598079979419708 -0.32894209027290344
vn 0.9524378776550293 -0.259424090385437 -0.1598787009716034
vn -0.16020110249519348 -0.7713547945022583 -0.6159120202064514
vn 0.20084670186042786 0.6158849000930786 -0.7618046998977661
vn 0.9949818253517151 -0.09873402118682861 0.016214249655604362
vn 0.10175579786300659 -0.9707635045051575 0.21740290522575378
# Triangles - count=30.
f 2//1 1//2 13//3
f 1//2 3//4 13//3
f 2//1 6//5 5//6
f 2//1 15//7 6//5
f 15//7 4//8 14//9
f 3//4 1//2 8//10
f 5//6 7//11 17//12
f 1//2 17//12 8//10
f 9//13 11//14 10//15
f 11//14 8//10 17//12
f 16//16 14//9 4//8
f 3//4 12//17 13//3
f 15//7 2//1 13//3
f 3//4 16//16 4//8
f 4//8 12//17 3//4
f 7//11 6//5 14//9
f 1//2 2//1 5//6
f 15//7 14//9 6//5
f 15//7 12//17 4//8
f 7//11 9//13 10//15
f 9//13 7//11 16//16
f 8//10 9//13 16//16
f 3//4 8//10 16//16
f 1//2 5//6 17//12
f 7//11 10//15 17//12
f 17//12 10//15 11//14
f 9//13 8//10 11//14
f 12//17 15//7 13//3
f 16//16 7//11 14//9
f 7//11 5//6 6//5
