# Vertices - count=34.
v 0.0012364380527287722 -0.015702059492468834 -0.007080674171447754
v 0.001013576053082943 -0.01546918973326683 -0.0017188780475407839
v 0.0017527929740026593 0.005123614799231291 0.009574711322784424
v 0.00014191700029186904 0.01997441053390503 0.006601333152502775
v 0.0018386240117251873 0.012263109907507896 0.014517120085656643
v 0.0003455079859122634 0.01618598960340023 0.013757999986410141
v 0.0005790219875052571 0.014284780248999596 0.015179630368947983
v -0.0001122250032494776 -0.01178354024887085 0.003744899993762374
v 0.0019162889802828431 -0.006829558871686459 0.006498157046735287
v 0.001818537013605237 -0.00694954302161932 0.008292794227600098
v 0.004237948916852474 0.002257585059851408 0.014521470293402672
v 0.002019881969317794 -0.0023500320967286825 0.011786580085754395
v 0.0007087989943102002 -0.013795670121908188 -0.01069653034210205
v -0.00019018100283574313 -0.012657339684665203 -0.011370359919965267
v -0.00021419499535113573 0.0010962480446323752 -0.005367517005652189
v 0.0003416069957893342 -0.016518469899892807 -0.004377126228064299
v -0.00041341601172462106 0.020539039745926857 0.006578862201422453
v -0.00034611098817549646 0.0016425249632447958 0.013669189997017384
v 0.004060924053192139 -0.0007587900036014616 0.013866719789803028
v 0.003948806785047054 0.004721163772046566 0.01601712964475155
v -0.0005546979955397546 -0.015206210315227509 -0.0014594789827242494
v -0.001501559978350997 0.0025468459352850914 0.009952782653272152
v -0.0005857140058651567 0.014542040415108204 0.014533930458128452
v -0.0009514709818176925 -0.00732684088870883 0.005385695956647396
v -0.0017124409787356853 0.008802831172943115 0.01603108085691929
v -0.0030167100485414267 0.004224597942084074 0.016391929239034653
v -0.0008995300158858299 -0.013923339545726776 -0.010541790165007114
v -0.0007250710041262209 0.013535079546272755 0.0038129680324345827
v -0.0010591739555820823 -0.015774009749293327 -0.006978392135351896
v -0.0029543039854615927 -0.0006725899875164032 0.014214210212230682
v 0.0002717800089158118 0.014552050270140171 0.004127085208892822
v 0.0004158460069447756 0.007354795001447201 0.015466390177607536
v -0.00116127694491297 0.011090629734098911 0.013017049990594387
v -0.001604913966730237 -0.003938316833227873 0.011059819720685482
# Texture coordinates - count=0.
# Normals - count=34.
vn 0.9654914736747742 0.11450280249118805 -0.23391319811344147
vn 0.8068416118621826 0.5229160785675049 -0.27489209175109863
vn 0.9378718137741089 0.2870393991470337 0.19494900107383728
vn 0.9960935711860657 -0.0479159913957119 -0.0741729736328125
vn 0.6091524958610535 -0.7246816158294678 0.3221333920955658
vn 0.20850770175457 0.7728927731513977 0.5993006825447083
vn -0.2486587017774582 0.9346327781677246 -0.25422489643096924
vn 0.2529670000076294 0.4674152135848999 0.8470720052719116
vn 0.9996560215950012 0.024752549827098846 0.008666335605084896
vn 0.6158891916275024 -0.4729175865650177 0.630102813243866
vn 0.6200771927833557 -0.08229541033506393 0.7802125811576843
vn 0.7134978771209717 -0.6362261176109314 -0.29349151253700256
vn 0.621311604976654 0.35729050636291504 -0.6973631978034973
vn -0.02431762032210827 0.46897590160369873 -0.8828760981559753
vn 0.6618568897247314 -0.39959049224853516 -0.6342499256134033
vn -0.6944363713264465 -0.45072969794273376 -0.5608928799629211
vn -0.2897087037563324 -0.7127884030342102 0.6387500166893005
vn -0.6286333203315735 0.20760759711265564 0.7494794130325317
vn -0.333882212638855 -0.534156322479248 0.7766594886779785
vn 0.34316450357437134 -0.3705250024795532 0.8631047010421753
vn 0.5477851033210754 -0.6418929100036621 0.5365679264068604
vn -0.7549715042114258 0.3961915075778961 0.5225422978401184
vn -0.09114079922437668 0.1373097002506256 -0.9863262176513672
vn -0.813118577003479 0.30771520733833313 -0.49411478638648987
vn -0.34315741062164307 -0.7385576963424683 0.5803236961364746
vn -0.32706260681152344 -0.6365231275558472 0.6984758973121643
vn -0.5836148858070374 -0.48788028955459595 0.6491276025772095
vn -0.8673684000968933 0.18242770433425903 -0.4630250036716461
vn -0.995109498500824 -0.09635180234909058 -0.021761290729045868
vn -0.9905561208724976 0.1274777054786682 -0.050480421632528305
vn -0.5912342071533203 -0.16491380333900452 0.7894591093063354
vn -0.7085462212562561 -0.6584693193435669 -0.2537330090999603
vn -0.6326988935470581 -0.685859203338623 0.35956838726997375
vn 0.04915856942534447 -0.9972009062767029 0.05633794888854027
# Triangles - count=64.
f 3//1 4//2 5//3
f 3//1 9//4 2//5
f 4//2 6//6 5//3
f 6//6 4//2 17//7
f 7//8 5//3 6//6
f 11//9 19//10 9//4
f 11//9 3//1 5//3
f 20//11 5//3 7//8
f 1//12 31//13 3//1
f 1//12 15//14 31//13
f 13//15 1//12 27//16
f 32//17 20//11 25//18
f 12//19 18//20 10//21
f 19//10 11//9 20//11
f 19//10 32//17 12//19
f 23//22 7//8 6//6
f 27//16 15//14 14//23
f 28//24 31//13 15//14
f 8//25 10//21 34//26
f 30//27 22//28 24//29
f 33//30 22//28 26//31
f 33//30 26//31 25//18
f 29//32 21//33 24//29
f 29//32 15//14 27//16
f 28//24 17//7 31//13
f 28//24 33//30 17//7
f 16//34 21//33 29//32
f 21//33 16//34 2//5
f 18//20 34//26 10//21
f 18//20 30//27 34//26
f 26//31 32//17 25//18
f 26//31 18//20 32//17
f 1//12 3//1 2//5
f 3//1 31//13 4//2
f 2//5 16//34 1//12
f 2//5 10//21 8//25
f 10//21 2//5 9//4
f 13//15 14//23 15//14
f 3//1 11//9 9//4
f 1//12 16//34 29//32
f 12//19 10//21 19//10
f 19//10 10//21 9//4
f 20//11 11//9 5//3
f 20//11 7//8 25//18
f 1//12 13//15 15//14
f 4//2 31//13 17//7
f 12//19 32//17 18//20
f 19//10 20//11 32//17
f 33//30 23//22 17//7
f 24//29 22//28 33//30
f 33//30 25//18 23//22
f 17//7 23//22 6//6
f 24//29 21//33 8//25
f 21//33 2//5 8//25
f 24//29 8//25 34//26
f 7//8 23//22 25//18
f 22//28 30//27 26//31
f 13//15 27//16 14//23
f 34//26 30//27 24//29
f 29//32 28//24 15//14
f 1//12 29//32 27//16
f 24//29 28//24 29//32
f 18//20 26//31 30//27
f 24//29 33//30 28//24
