# Vertices - count=34.
v 0.011583860032260418 -0.0078161945566535 -0.04445122927427292
v 0.017904220148921013 0.030487889423966408 0.05890284851193428
v 0.014340749941766262 0.050588250160217285 -0.07165753096342087
v 0.014332829974591732 0.0628976821899414 0.012830429710447788
v 0.024752730503678322 0.0762549564242363 0.06803715229034424
v -0.00109851302113384 0.07882767170667648 0.06352733820676804
v -0.008710682392120361 0.03379499167203903 0.06585638970136642
v 0.051548831164836884 0.042804889380931854 0.12306910008192062
v 0.05349402874708176 0.1039607971906662 0.10857299715280533
v 0.031079590320587158 0.10109429806470871 0.10395470261573792
v 0.019929520785808563 0.03940831869840622 0.09211807698011398
v -0.008351325057446957 -0.031244810670614243 -0.14028529822826385
v 0.013980859890580177 -0.03172003850340843 -0.13634920120239258
v 0.013946649618446827 -0.09089171141386032 -0.11300960183143616
v 0.009931445121765137 -0.08260797709226608 -0.13511620461940765
v 0.012111060321331024 0.012964299879968166 -0.11871910095214844
v -0.0012276170309633017 0.051719360053539276 0.0728994607925415
v 0.04402035102248192 0.04230641946196556 0.1419364959001541
v 0.039938680827617645 0.07450848072767258 0.15379789471626282
v 0.017728319391608238 0.06984847038984299 0.1329793930053711
v -0.011926939710974693 -0.007461428176611662 -0.045845501124858856
v -0.0128245297819376 0.04818892106413841 -0.06541407108306885
v -0.020913060754537582 0.034524548798799515 0.06248294934630394
v -0.017435070127248764 0.07167518138885498 0.054398830980062485
v -0.04978090152144432 0.04419934004545212 0.11617910116910934
v -0.05063771829009056 0.10470890253782272 0.10744819790124893
v -0.015825510025024414 -0.025288760662078857 -0.1258527934551239
v -0.014138280414044857 -0.08754009008407593 -0.10874989628791809
v -0.013273229822516441 -0.09159629791975021 -0.12636330723762512
v -0.015182370319962502 0.027818670496344566 -0.10725890100002289
v -0.047249190509319305 0.04475861042737961 0.1446262001991272
v -0.03997974842786789 0.07393962144851685 0.15388239920139313
v -0.021214419975876808 0.048411961644887924 0.1216111034154892
v -0.018731649965047836 0.08252512663602829 0.12452749907970428
# Texture coordinates - count=0.
# Normals - count=34.
vn 0.6839640736579895 0.6971439719200134 -0.21490350365638733
vn 0.6243202090263367 0.7305225133895874 -0.2766968011856079
vn -0.6000608205795288 0.7581321001052856 -0.25527000427246094
vn 0.12886929512023926 0.2453926056623459 0.9608200192451477
vn 0.6428405046463013 0.7658771276473999 0.013727120123803616
vn -0.3000156879425049 0.9530792236328125 -0.040380410850048065
vn 0.6271349787712097 -0.7750421166419983 0.07753299921751022
vn 0.9424871802330017 0.023705480620265007 -0.33340030908584595
vn -0.6463016867637634 -0.6329447031021118 0.42623370885849
vn 0.6414486765861511 -0.7433075904846191 0.1898352950811386
vn -0.5266394019126892 -0.747077226638794 0.40561890602111816
vn -0.15864059329032898 0.9632999897003174 -0.21653270721435547
vn 0.7270531058311462 0.11984830349683762 -0.6760401129722595
vn 0.4941338002681732 -0.7666417956352234 0.4099906086921692
vn -0.5769963264465332 -0.7130181193351746 -0.39834728837013245
vn 0.5887014269828796 0.44979730248451233 -0.6716495752334595
vn 0.4770539104938507 -0.4414829909801483 -0.7599424123764038
vn -0.41301488876342773 0.136837899684906 -0.9003854990005493
vn -0.004582107067108154 -0.31528180837631226 0.9489870071411133
vn -0.454959899187088 -0.805816113948822 0.3790411055088043
vn -0.8359227180480957 0.07676898688077927 0.5434519052505493
vn -0.02960854023694992 -0.90038001537323 0.4340958893299103
vn 0.8291041254997253 -0.5588893294334412 0.015142969787120819
vn -0.7242069840431213 -0.6883884072303772 0.04056799039244652
vn -0.6657677888870239 0.6044402122497559 -0.43749889731407166
vn -0.9606130719184875 0.04748636111617088 -0.2738021910190582
vn -0.6335170269012451 0.5692126154899597 -0.5240737199783325
vn -0.805342972278595 -0.5871816277503967 -0.08148913830518723
vn -0.576115608215332 0.8169503211975098 -0.026138659566640854
vn 0.6954835057258606 -0.565046489238739 0.44387519359588623
vn 0.7656049728393555 0.48201850056648254 0.4260365068912506
vn -0.3242911994457245 -0.6641867756843567 0.6735659241676331
vn 0.24712729454040527 -0.7075505256652832 0.6620426177978516
vn -0.11067429929971695 0.2729068994522095 0.955653190612793
# Triangles - count=64.
f 4//1 3//2 22//3
f 19//4 9//5 10//6
f 2//7 4//1 5//8
f 28//9 14//10 21//11
f 4//1 6//12 10//6
f 13//13 1//14 14//10
f 29//15 14//10 28//9
f 13//13 16//16 3//2
f 1//14 21//11 14//10
f 13//13 15//17 12//18
f 17//19 11//20 20//21
f 11//20 17//19 7//22
f 8//23 11//20 2//7
f 23//24 24//25 27//26
f 2//7 21//11 1//14
f 21//11 7//22 23//24
f 21//11 2//7 7//22
f 12//18 27//26 30//27
f 28//9 27//26 29//15
f 25//28 24//25 23//24
f 6//12 24//25 26//29
f 30//27 24//25 22//3
f 12//18 29//15 27//26
f 33//30 17//19 34//31
f 31//32 25//28 23//24
f 26//29 25//28 31//32
f 26//29 34//31 6//12
f 13//13 2//7 1//14
f 2//7 13//13 4//1
f 20//21 18//33 19//4
f 20//21 19//4 10//6
f 2//7 11//20 7//22
f 5//8 4//1 10//6
f 8//23 2//7 5//8
f 19//4 8//23 9//5
f 5//8 9//5 8//23
f 10//6 9//5 5//8
f 14//10 15//17 13//13
f 14//10 29//15 15//17
f 16//16 13//13 12//18
f 3//2 16//16 30//27
f 13//13 3//2 4//1
f 10//6 6//12 20//21
f 6//12 17//19 20//21
f 33//30 32//34 31//32
f 20//21 11//20 18//33
f 27//26 24//25 30//27
f 21//11 23//24 27//26
f 24//25 4//1 22//3
f 23//24 33//30 31//32
f 26//29 32//34 34//31
f 6//12 4//1 24//25
f 27//26 28//9 21//11
f 29//15 12//18 15//17
f 25//28 26//29 24//25
f 12//18 30//27 16//16
f 30//27 22//3 3//2
f 17//19 6//12 34//31
f 17//19 33//30 7//22
f 32//34 26//29 31//32
f 8//23 18//33 11//20
f 19//4 18//33 8//23
f 33//30 34//31 32//34
f 23//24 7//22 33//30
